<svg width="471" height="246" viewBox="0 0 471 246" fill="none" xmlns="http://www.w3.org/2000/svg">
<path fill-rule="evenodd" clip-rule="evenodd" d="M69.8979 152.451C146.276 134.377 282.016 138.103 373.083 160.773C464.149 183.444 476.056 216.474 399.678 234.549C326.989 251.75 200.533 249.206 109.99 229.379C94.3379 226.982 79.3882 224.064 65.633 220.64C-12.073 201.295 -22.2332 173.11 42.9396 157.688C50.3755 155.928 58.4708 154.41 67.0937 153.131C68.0136 152.903 68.9489 152.676 69.8979 152.451Z" fill="#2E4156"/>
<path fill-rule="evenodd" clip-rule="evenodd" d="M87.4493 178.184C79.9078 183.839 68.5229 181.841 61.4591 175.6C54.3952 169.36 50.9833 159.919 49.4311 150.622C46.4142 132.552 49.5686 113.509 58.2508 97.3775C60.1931 93.7686 62.7013 90.0576 66.5864 88.7527C103.893 76.2224 142.555 67.73 181.678 63.4713C211.08 60.271 241.009 59.4782 270.06 65.0178C299.112 70.5575 327.38 82.7557 348.921 103.021C357.355 110.956 369.678 113.028 381.248 113.496C392.819 113.965 404.708 113.245 415.667 116.987C434.243 123.332 446.222 140.931 456.848 157.437C459.717 161.894 462.615 166.41 464.29 171.439C469.467 186.987 462.373 205.369 470.183 219.775C465.428 221.233 460.322 221.527 455.431 220.625C456.367 224.971 450.597 227.36 446.192 227.96C426.774 230.604 407.355 233.249 387.937 235.893C387.281 233.936 387.889 231.616 389.42 230.232C356.726 226.949 324.012 223.859 291.281 220.964C287.618 220.641 283.272 220.606 281.074 223.553C269.078 239.639 242.046 241.141 228.342 226.483C223.293 221.082 219.57 213.755 212.617 211.243C185.029 201.277 157.442 191.311 129.854 181.345C122.195 178.578 110.396 175.616 94.4573 172.46C93.3547 172.119 92.5614 172.148 92.0775 172.548C89.6601 174.546 88.0922 177.703 87.4493 178.184Z" fill="white"/>
<path fill-rule="evenodd" clip-rule="evenodd" d="M53.4707 120.918C55.0667 113.435 64.7954 110.033 71.9534 112.739C79.1115 115.444 83.3885 123.516 86.6012 130.461C90.986 139.94 92.3849 172.711 84.2629 178.8C76.7214 184.455 68.5229 181.842 61.4591 175.601C54.3952 169.36 50.9833 159.919 49.4311 150.622C46.4142 132.552 55.2795 114.507 53.4707 120.918Z" fill="#00160A"/>
<path fill-rule="evenodd" clip-rule="evenodd" d="M66.758 177.95C74.8719 177.95 81.4496 164.655 81.4496 148.254C81.4496 131.854 72.072 118.783 66.758 118.558C61.444 118.334 52.0664 131.854 52.0664 148.254C52.0664 164.655 58.6441 177.95 66.758 177.95Z" fill="white"/>
<path fill-rule="evenodd" clip-rule="evenodd" d="M272.636 230.961C274.834 229.518 276.858 227.811 278.862 226.09C282.204 223.219 285.596 220.18 287.514 216.143C288.977 213.064 289.483 209.599 289.802 206.182C290.841 195.079 290.915 182.83 287.514 172.247C284.112 161.664 277.142 152.775 268.604 145.984C264.577 142.78 259.979 140.229 255 139.202C247.676 137.69 238.904 139.36 232.558 143.442C226.213 147.525 221.479 153.026 217.856 159.795C212.038 170.664 209.795 185.211 212.854 197.23C213.873 201.236 215.288 206.848 217.112 210.534C219.923 216.216 227.43 231.315 241.457 235.676C257.034 240.52 267.87 234.088 272.636 230.961Z" fill="#00160A"/>
<path fill-rule="evenodd" clip-rule="evenodd" d="M255.116 231.395C275.909 228.343 284.586 214.988 284.586 193.618C284.586 172.247 268.061 149.417 249.934 149.417C231.807 149.417 217.112 167.61 217.112 190.053C217.112 212.496 234.324 234.447 255.116 231.395Z" fill="white"/>
<path fill-rule="evenodd" clip-rule="evenodd" d="M142.3 113.819C141.756 113.327 141.842 112.465 141.972 111.744C142.065 111.227 142.341 110.567 142.861 110.641C143.769 110.771 143.171 112.657 144.059 112.888C147.654 113.825 151.212 114.906 154.72 116.13C155.44 116.381 156.153 115.805 156.771 115.358C157.39 114.911 158.374 114.618 158.818 115.238C157.861 116.091 156.802 116.989 155.523 117.075C155.017 117.109 154.513 117.011 154.017 116.91C150.366 116.171 146.746 115.275 143.172 114.226C142.861 114.135 142.54 114.036 142.3 113.819Z" fill="#00160A"/>
<path fill-rule="evenodd" clip-rule="evenodd" d="M206.691 193.618C186.474 185.76 167.133 175.65 149.141 163.535C143.653 159.84 139.584 154.298 136.844 148.275C134.103 142.253 132.613 135.738 131.519 129.213C130.183 121.243 129.412 113.179 129.214 105.101C129.851 105.002 130.147 105.858 130.195 106.5C131.266 120.759 131.987 135.45 137.982 148.431C138.952 150.531 140.183 152.699 142.259 153.718C161.661 163.238 181.063 172.759 200.464 182.279C199.583 182.834 198.439 182.381 197.505 181.922C178.912 172.784 160.32 163.647 141.727 154.51C143.94 158.807 148.071 161.736 152.109 164.392C168.335 175.061 185.613 184.128 203.612 191.419C201.443 188.968 199.129 186.085 199.515 182.835C200.124 183.413 200.429 184.232 200.768 185.001C202.178 188.201 204.449 190.933 206.691 193.618Z" fill="#00160A"/>
<path fill-rule="evenodd" clip-rule="evenodd" d="M448.878 0.0483754C449.072 -0.114647 449.377 0.166406 449.33 0.415467C449.283 0.664528 449.05 0.827554 448.836 0.96331C448.626 0.690784 448.63 0.274976 448.845 0.00654109L448.878 0.0483754Z" fill="#00160A"/>
<path fill-rule="evenodd" clip-rule="evenodd" d="M329.916 133.293C330.269 132.719 331.112 132.79 331.77 132.938C359.659 139.214 385.168 153.791 407.344 171.829C407.98 172.346 408.67 172.983 408.658 173.802C404.911 171.02 401.165 168.239 397.418 165.458C394.928 163.609 392.437 161.76 389.897 159.979C371.867 147.339 351.377 138.223 329.916 133.293Z" fill="#00160A"/>
<path fill-rule="evenodd" clip-rule="evenodd" d="M290.931 141.677C290.372 141.703 289.844 141.441 289.344 141.189C273.308 133.109 255.883 128.24 238.585 123.421C238.908 122.811 239.798 122.911 240.462 123.1C256.251 127.583 272.119 132.096 286.999 139.023C288.446 139.696 289.933 140.431 290.931 141.677Z" fill="#00160A"/>
<path fill-rule="evenodd" clip-rule="evenodd" d="M228.907 189.018C228.675 189.28 228.234 189.322 227.957 189.109C231.374 178.507 240.382 169.887 251.124 166.939C251.274 167.65 250.416 168.112 249.728 168.342C240.12 171.56 232.192 179.433 228.907 189.018Z" fill="#00160A"/>
<path fill-rule="evenodd" clip-rule="evenodd" d="M168.074 186.867C172.524 189.351 176.322 192.99 178.994 197.329C178.306 197.716 177.548 196.977 177.091 196.334C174.293 192.401 170.802 188.792 166.382 186.852C151.64 180.378 137.137 173.357 122.913 165.811C123.47 165.528 124.135 165.798 124.698 166.066C130.646 168.907 136.595 171.747 142.543 174.587C146.571 176.51 150.598 178.433 154.626 180.356C157.971 181.954 161.316 183.551 164.662 185.148C165.811 185.697 166.962 186.246 168.074 186.867Z" fill="#00160A"/>
<path fill-rule="evenodd" clip-rule="evenodd" d="M220.178 171.665C220.721 170.215 221.035 168.626 222.375 167.851C218.278 176.392 217.071 186.049 217.611 195.506C217.678 196.69 217.784 197.874 218.026 199.034C218.424 200.941 219.194 202.77 220.279 204.387C220.247 204.705 219.819 204.848 219.528 204.716C219.238 204.583 219.065 204.285 218.918 204.002C216.35 199.036 216.077 193.201 216.493 187.626C216.596 186.246 216.739 184.868 216.969 183.504C217.653 179.446 218.416 175.492 219.858 171.638L220.178 171.665Z" fill="#00160A"/>
<path fill-rule="evenodd" clip-rule="evenodd" d="M428.868 167.936C429.535 167.947 430.248 168.054 430.743 168.501C430.985 168.719 431.156 169.003 431.321 169.285C432.149 170.704 432.893 172.171 433.549 173.677C433.292 174.262 432.579 174.536 431.943 174.475C431.306 174.415 430.729 174.092 430.178 173.767C428.661 172.874 427.181 171.918 425.743 170.902C425.347 170.623 424.904 170.171 425.108 169.732C425.727 168.397 427.397 167.909 428.868 167.936ZM432.16 173.857C432.296 173.702 432.431 173.546 432.566 173.39C432.112 172.543 431.658 171.697 431.204 170.851C430.809 170.114 430.359 169.325 429.591 168.993C429.005 168.74 428.334 168.801 427.705 168.91C427.285 168.983 426.84 169.091 426.55 169.405C426.261 169.718 426.233 170.301 426.599 170.521C428.453 171.633 430.307 172.745 432.16 173.857Z" fill="#00160A"/>
<path fill-rule="evenodd" clip-rule="evenodd" d="M237.254 190.957C236.879 190.182 237.088 189.26 237.36 188.442C239.466 182.096 244.747 177.279 250.464 173.811C250.727 173.651 251.029 173.488 251.327 173.564C251.625 173.641 251.795 174.101 251.53 174.258C245.886 177.599 240.546 182.181 238.465 188.402C238.164 189.304 237.912 190.27 237.254 190.957Z" fill="#00160A"/>
<path fill-rule="evenodd" clip-rule="evenodd" d="M76.1856 141.077C76.4767 140.507 77.3104 141.132 77.5564 141.723C79.4271 146.215 79.8109 151.312 78.634 156.034C77.4572 160.756 74.726 165.076 70.9658 168.165C70.3418 167.867 70.8305 166.932 71.3389 166.463C74.7325 163.337 77.0876 159.102 77.9529 154.57C78.8182 150.038 78.1889 145.234 76.1856 141.077Z" fill="#00160A"/>
<path fill-rule="evenodd" clip-rule="evenodd" d="M58.9484 155.853C59.0462 156.04 59.1467 156.24 59.1289 156.45C59.1111 156.66 58.9208 156.869 58.7148 156.825C58.5748 156.794 58.4811 156.664 58.4126 156.539C58.0861 155.94 58.0253 155.203 58.2493 154.559C58.6638 154.829 58.896 155.354 58.8176 155.843L58.9484 155.853Z" fill="#00160A"/>
<path fill-rule="evenodd" clip-rule="evenodd" d="M86.4346 162.26C86.7645 162.513 86.5696 163.155 86.1548 163.182C85.9379 162.976 86.0665 162.539 86.3605 162.483L86.4346 162.26Z" fill="#00160A"/>
<path fill-rule="evenodd" clip-rule="evenodd" d="M56.7635 156.534C56.5057 155.867 56.3495 154.915 56.9955 154.608C57.4549 155.898 57.9142 157.187 58.3736 158.476C58.4424 158.669 58.5122 158.874 58.4701 159.075C58.428 159.276 58.2267 159.457 58.0299 159.4C57.8654 159.352 57.7832 159.173 57.7214 159.013C57.4021 158.187 57.0828 157.36 56.7635 156.534Z" fill="#00160A"/>
<path fill-rule="evenodd" clip-rule="evenodd" d="M55.4079 155.229C55.9657 155.514 55.8867 156.31 55.8987 156.936C55.9239 158.258 56.7067 159.423 57.3402 160.583C57.4668 160.815 57.592 161.08 57.5165 161.333C57.4409 161.586 57.0523 161.727 56.9101 161.505C55.9962 160.074 55.3452 158.476 54.9993 156.815C54.8789 156.236 54.8758 155.484 55.4079 155.229Z" fill="#00160A"/>
<path fill-rule="evenodd" clip-rule="evenodd" d="M151.564 79.4103C133.011 82.8116 114.577 87.871 97.9536 96.7836C97.4894 96.1245 98.3419 95.3418 99.0677 94.9909C119.01 85.3495 140.657 79.2448 162.698 77.0458C167.813 76.5356 173.022 76.2385 178.053 77.2895C190.698 79.9312 200.312 90.8546 204.99 102.895C207.652 109.746 209.438 117.671 215.48 121.855C209.23 121.155 203.232 119.065 197.295 116.99C194.984 116.182 192.673 115.375 190.362 114.567C185.603 112.903 180.844 111.24 176.085 109.576C181.617 110.476 187.058 111.939 192.295 113.936C191.877 112.744 191.055 111.697 189.995 111.008C181.791 108.897 173.165 108.435 164.782 109.659C163.169 109.894 162.665 107.596 161.718 106.27C160.801 104.985 159.145 104.508 157.616 104.115C147.018 101.392 136.42 98.6687 125.821 95.9455C126.277 95.4607 127.058 95.5559 127.71 95.6905C138.731 97.9674 149.63 100.833 160.346 104.271C159.571 102.679 158.797 101.088 158.023 99.4959C157.902 99.2481 157.779 98.9786 157.828 98.7077C157.898 98.3269 158.276 98.094 158.619 97.9144C168.346 92.82 180.142 91.833 190.58 95.24C192.02 95.71 193.679 96.5771 193.741 98.0905C193.973 103.74 198.43 108.19 202.587 112.023C204.427 113.72 206.337 115.46 208.696 116.295C206.59 109.744 204.466 103.152 201.201 97.0947C197.936 91.0378 193.429 85.4822 187.483 82.0204C176.877 75.8466 163.634 77.1975 151.564 79.4103ZM191.538 97.9797C191.203 97.3684 190.8 96.7013 190.127 96.5163C185.587 95.2668 180.919 94.0054 176.233 94.4738C173.951 94.7018 171.732 95.3357 169.527 95.9669C166.42 96.8565 163.312 97.7462 160.205 98.6359C159.942 98.7111 159.638 98.8274 159.572 99.0926C159.525 99.283 159.625 99.4756 159.721 99.6465C161.045 101.998 162.37 104.35 163.694 106.702C163.953 107.162 164.237 107.647 164.707 107.886C165.065 108.068 165.483 108.082 165.885 108.085C171.672 108.127 177.551 106.763 183.188 108.072C184.673 108.417 186.12 108.945 187.633 109.136C189.145 109.326 190.79 109.135 191.981 108.184C193.434 107.024 193.903 104.958 193.622 103.12C193.34 101.283 192.432 99.6097 191.538 97.9797ZM213.194 120.33C211.802 118.362 209.231 117.73 207.086 116.629C202.363 114.206 199.476 109.273 195.208 106.116C194.417 107.429 193.296 108.541 191.976 109.321C191.623 109.529 191.202 109.807 191.234 110.217C191.248 110.391 191.347 110.546 191.443 110.692C192.078 111.657 192.712 112.623 193.347 113.588C193.748 114.198 194.164 114.823 194.76 115.245C195.286 115.617 195.916 115.805 196.534 115.987C202.081 117.62 207.627 119.254 213.174 120.888C213.389 120.836 213.322 120.51 213.194 120.33Z" fill="#00160A"/>
<path fill-rule="evenodd" clip-rule="evenodd" d="M55.6987 151.381C54.4698 147.848 54.6134 143.922 55.7092 140.346C56.8049 136.77 58.8111 133.522 61.2061 130.649C61.3968 130.42 61.5946 130.19 61.8485 130.034C62.0441 129.914 62.2693 129.842 62.4983 129.827C62.6542 130.288 62.3285 130.76 62.0262 131.141C60.0527 133.63 58.2469 136.29 57.0769 139.243C55.907 142.195 55.4001 145.473 56.0623 148.579C56.271 149.558 56.5063 150.79 55.6987 151.381H55.6987Z" fill="#00160A"/>
<path fill-rule="evenodd" clip-rule="evenodd" d="M76.4652 147.164C77.6708 152.6 75.5391 158.637 71.1877 162.111C71.1364 162.152 71.0833 162.193 71.021 162.214C70.7732 162.297 70.5385 161.992 70.5788 161.734C70.619 161.475 70.8232 161.279 71.0126 161.099C72.0965 160.07 73.0676 158.915 73.8376 157.634C75.5491 154.787 76.2117 151.324 75.6724 148.046C75.6222 147.741 75.5681 147.402 75.7367 147.142C75.9053 146.882 76.3982 146.862 76.4652 147.164Z" fill="#00160A"/>
<path fill-rule="evenodd" clip-rule="evenodd" d="M74.3606 129.979C74.4622 130.187 74.5578 130.427 74.4732 130.641C74.3886 130.856 74.0304 130.939 73.9374 130.728C73.4565 129.636 72.6791 128.676 71.7108 127.979C71.4381 127.782 71.6991 127.297 72.0347 127.28C72.3703 127.263 72.6511 127.521 72.8749 127.772C73.4676 128.435 73.969 129.18 74.3606 129.979Z" fill="#00160A"/>
<path fill-rule="evenodd" clip-rule="evenodd" d="M72.6411 125.955C72.4227 125.76 72.6827 125.362 72.9755 125.365C73.2683 125.368 73.5015 125.601 73.6924 125.823C74.8222 127.137 75.7069 128.661 76.2876 130.294C76.3703 130.526 76.4449 130.793 76.3286 131.011C76.2122 131.228 75.8165 131.266 75.7534 131.027C75.2391 129.082 74.1424 127.294 72.6411 125.955Z" fill="#00160A"/>
<path fill-rule="evenodd" clip-rule="evenodd" d="M72.5909 132.262C72.0872 131.843 71.5835 131.424 71.0798 131.005C70.8772 130.837 71.0973 130.471 71.3607 130.461C71.6242 130.451 71.8453 130.646 72.0355 130.829C72.3382 131.12 72.641 131.41 72.9438 131.701C73.1482 131.897 73.3397 132.27 73.0951 132.413C72.9331 132.508 72.7352 132.382 72.5909 132.262Z" fill="#00160A"/>
<path fill-rule="evenodd" clip-rule="evenodd" d="M280.113 197.244C279.175 202.693 276.234 207.774 271.977 211.302C269.629 213.248 266.921 214.718 264.142 215.974C260.987 217.399 257.716 218.565 254.372 219.457C254.42 218.573 255.449 218.145 256.301 217.904C261.272 216.498 266.165 214.55 270.282 211.429C274.398 208.308 277.702 203.912 278.776 198.858C278.938 198.095 279.347 197.097 280.113 197.244Z" fill="#00160A"/>
<path fill-rule="evenodd" clip-rule="evenodd" d="M68.14 149.344C67.4833 149.55 66.741 149.313 66.228 148.854C65.7151 148.395 65.4075 147.744 65.2346 147.078C65.0787 146.477 65.0222 145.851 65.0683 145.232C65.1534 144.088 65.5888 142.984 66.2331 142.035C66.557 141.558 66.9675 141.094 67.522 140.935C68.4498 140.669 69.4202 141.388 69.8192 142.266C70.1957 143.096 70.2087 144.04 70.1706 144.95C70.1206 146.146 69.975 147.393 69.309 148.387C69.0232 148.814 68.6299 149.191 68.14 149.344ZM67.7508 141.941C65.8699 143.238 65.3019 146.1 66.5453 148.016C66.8131 148.429 67.2263 148.829 67.7165 148.789C68.2925 148.742 68.6329 148.134 68.8362 147.593C69.5123 145.794 69.775 143.621 68.6399 142.071C68.5452 141.941 68.4302 141.811 68.2737 141.775C68.0899 141.733 67.906 141.835 67.7508 141.941Z" fill="#00160A"/>
<path fill-rule="evenodd" clip-rule="evenodd" d="M63.3906 134.467C61.011 136.476 59.921 139.593 59.061 142.586C58.6461 144.03 58.2582 145.497 58.1849 146.997C58.1532 147.646 58.1497 148.374 57.6859 148.828C57.1757 148.602 57.1253 147.907 57.1708 147.351C57.5501 142.716 59.196 138.191 61.8831 134.396C62.1341 134.041 62.4476 133.662 62.8806 133.626C63.3135 133.591 63.7225 134.186 63.3906 134.467Z" fill="#00160A"/>
<path fill-rule="evenodd" clip-rule="evenodd" d="M244.021 204.989C244.245 205.196 243.982 205.607 243.677 205.614C243.373 205.622 243.119 205.394 242.908 205.175C241.537 203.757 240.432 202.082 239.67 200.263C239.88 200.009 240.304 200.045 240.565 200.247C240.826 200.449 240.969 200.764 241.113 201.061C241.827 202.536 242.819 203.876 244.021 204.989Z" fill="#00160A"/>
<path fill-rule="evenodd" clip-rule="evenodd" d="M245.564 202.669C244.642 201.895 243.861 200.953 243.273 199.903C243.197 199.767 243.122 199.614 243.154 199.462C243.208 199.207 243.549 199.106 243.791 199.206C244.032 199.305 244.192 199.533 244.339 199.749C244.896 200.571 245.452 201.393 246.009 202.215C245.861 202.366 245.712 202.518 245.564 202.669Z" fill="#00160A"/>
<path fill-rule="evenodd" clip-rule="evenodd" d="M236.38 202.056C236.756 203.161 237.215 204.238 237.751 205.274C238.48 206.684 239.36 208.027 240.472 209.159C240.708 209.399 240.373 209.834 240.038 209.803C239.703 209.772 239.457 209.484 239.255 209.215C238.026 207.58 236.953 205.828 236.054 203.99C235.886 203.645 235.719 203.28 235.733 202.896C235.747 202.512 235.999 202.108 236.38 202.056Z" fill="#00160A"/>
<path fill-rule="evenodd" clip-rule="evenodd" d="M121.365 100.458C120.068 111.698 122.098 123.027 124.12 134.16C124.464 136.053 124.808 137.947 125.271 139.813C126.747 145.761 129.442 151.404 133.14 156.29C133.63 156.937 134.14 157.866 133.608 158.479C126.744 154.214 120.034 149.7 113.497 144.948C112.901 144.515 112.274 144.037 112.032 143.341C107.18 129.398 105.679 114.549 104.211 99.8593C104.188 99.6202 104.165 99.3712 104.248 99.1459C104.392 98.7575 104.802 98.5475 105.178 98.3735C110.256 96.0224 115.334 93.6713 120.412 91.3202C123.619 89.8352 126.89 88.3315 130.395 87.877C128.976 89.1265 127.184 89.9464 125.311 90.2029C124.279 90.3441 123.448 91.176 123.018 92.1239C122.588 93.0717 122.488 94.1312 122.395 95.1679C124.886 93.4476 127.378 91.7273 129.869 90.007C130.507 89.5662 131.602 89.2479 131.871 89.9758C129.015 91.7453 126.217 93.6079 123.482 95.5595C121.989 96.625 121.575 98.6353 121.365 100.458ZM128.409 150.498C127.572 149.067 126.732 147.63 126.116 146.091C125.419 144.348 125.021 142.503 124.625 140.668C122.885 132.591 121.141 124.49 120.398 116.261C119.656 108.032 119.938 99.6267 122.196 91.6788C119.629 92.5941 117.168 93.7793 114.713 94.9622C111.673 96.4272 108.632 97.8922 105.592 99.3572C105.443 99.429 105.286 99.5074 105.197 99.6469C105.088 99.819 105.108 100.04 105.132 100.243C105.564 103.891 105.996 107.54 106.428 111.189C107.085 116.747 107.744 122.312 108.824 127.805C109.641 131.961 110.698 136.07 111.988 140.104C112.559 141.89 113.269 143.788 114.826 144.832C120.459 148.611 126.093 152.39 131.726 156.169C130.62 154.279 129.515 152.389 128.409 150.498Z" fill="#00160A"/>
<path fill-rule="evenodd" clip-rule="evenodd" d="M267.624 178.496C268.604 179.437 269.401 180.567 269.958 181.807C270.012 181.925 270.064 182.051 270.046 182.18C270.004 182.496 269.558 182.605 269.282 182.446C269.006 182.286 268.863 181.975 268.722 181.689C268.125 180.471 267.282 179.373 266.26 178.481C266.274 178.193 266.611 178.009 266.897 178.052C267.182 178.096 267.416 178.296 267.624 178.496Z" fill="#00160A"/>
<path fill-rule="evenodd" clip-rule="evenodd" d="M272.124 194.877C272.209 194.66 272.57 194.717 272.678 194.924C272.785 195.131 272.72 195.382 272.648 195.604C270.524 202.175 264.526 206.82 258.17 209.521C257.85 209.657 257.483 209.79 257.165 209.648C256.848 209.506 256.761 208.948 257.094 208.845C263.846 206.741 269.532 201.457 272.124 194.877Z" fill="#00160A"/>
<path fill-rule="evenodd" clip-rule="evenodd" d="M264.749 182.074C265.356 182.835 265.834 183.698 266.157 184.615C266.188 184.703 266.217 184.798 266.19 184.887C266.095 185.196 265.626 184.983 265.422 184.732C264.79 183.956 264.157 183.18 263.525 182.404C263.424 182.28 263.319 182.147 263.306 181.988C263.278 181.664 263.669 181.432 263.988 181.497C264.306 181.563 264.546 181.82 264.749 182.074Z" fill="#00160A"/>
<path fill-rule="evenodd" clip-rule="evenodd" d="M273.767 180.211C273.427 179.997 273.32 179.561 273.221 179.172C272.681 177.054 271.525 175.098 269.93 173.605C269.704 173.393 269.455 173.168 269.393 172.864C269.331 172.559 269.582 172.182 269.884 172.255C270.001 172.284 270.094 172.371 270.18 172.455C271.915 174.156 273.259 176.255 274.078 178.543C274.29 179.136 274.357 179.99 273.767 180.211Z" fill="#00160A"/>
<path fill-rule="evenodd" clip-rule="evenodd" d="M253.472 188.238C254.508 188.074 255.605 188.341 256.449 188.962C256.79 189.212 257.089 189.517 257.345 189.853C258.184 190.959 258.527 192.429 258.263 193.792C257.999 195.155 257.132 196.39 255.94 197.102C255.655 197.273 255.347 197.416 255.019 197.467C254.771 197.505 254.517 197.49 254.269 197.449C253.027 197.245 251.942 196.403 251.281 195.331C250.338 193.801 250.232 191.788 251.011 190.167C251.284 189.599 251.668 189.07 252.191 188.719C252.573 188.463 253.018 188.31 253.472 188.238ZM255.733 195.674C256.29 195.101 256.686 194.374 256.866 193.595C257.167 192.292 256.777 190.775 255.688 189.998C254.599 189.221 252.826 189.478 252.212 190.667C251.698 191.661 251.635 192.877 252.044 193.919C252.453 194.96 253.326 195.809 254.379 196.188C254.86 196.362 255.377 196.041 255.733 195.674V195.674Z" fill="#00160A"/>
<path fill-rule="evenodd" clip-rule="evenodd" d="M248.122 183.315C251.597 180.738 256.85 180.717 260.347 183.266C264.967 177.164 268.836 170.529 271.847 163.546C272.378 162.313 271.298 161.024 270.304 160.098C265.8 155.9 260.977 151.578 254.914 150.113C248.827 148.642 241.643 149.718 236.322 152.938C231 156.157 226.746 160.776 222.849 165.541C222.71 164.573 223.388 163.691 224.036 162.943C228.014 158.353 232.481 154.024 237.937 151.202C243.393 148.38 250.605 147.824 256.479 149.701C258.275 150.276 259.969 151.119 261.589 152.064C269.825 156.867 276.21 164.344 280.416 172.72C284.622 181.096 286.738 190.352 287.554 199.634C287.768 202.077 287.895 204.548 287.503 206.97C287.132 209.268 286.301 211.477 285.267 213.577C282.398 219.407 277.88 224.51 272.206 227.9C262.633 233.62 250.061 234.019 239.861 229.429C229.66 224.84 221.979 215.552 218.988 205.046C228.126 203.03 236.914 199.53 244.876 194.737C243.252 190.799 244.647 185.892 248.122 183.315ZM268.372 228.555C268.153 228.418 267.838 228.549 267.751 228.813C268.201 228.825 268.653 228.653 269.002 228.335C268.85 228.057 268.379 228.203 268.376 228.528L268.372 228.555ZM233.992 224.77C239.395 228.504 245.835 230.951 252.477 231.276C256.74 231.485 261.046 230.821 265.028 229.34C266.612 228.75 268.142 228.035 269.67 227.32C271.423 226.5 273.19 225.673 274.748 224.545C275.751 223.819 276.656 222.976 277.522 222.102C280.812 218.782 283.598 214.916 285.102 210.561C288.149 201.741 285.665 192.128 283.066 183.176C276.909 183.791 270.891 185.667 265.526 188.641C266.98 192.814 266.173 197.788 263.019 200.973C259.865 204.158 254.337 205.095 250.509 202.691C249.779 202.232 248.841 202.81 248.198 203.377C242.85 208.095 238.635 213.998 235.974 220.497C235.379 221.95 234.854 223.446 233.992 224.77ZM247.379 202.07C247.55 201.905 247.733 201.718 247.745 201.484C247.755 201.291 247.646 201.115 247.54 200.952C246.403 199.194 245.266 197.437 244.128 195.679C236.699 200.496 228.333 203.921 219.613 205.717C222.479 212.662 227.06 218.922 232.856 223.812C236.031 215.658 241.022 208.187 247.379 202.07ZM248.594 200.546C250.758 202.435 253.795 203.476 256.719 203.108C257.528 203.006 258.324 202.8 259.061 202.471C259.737 202.17 260.359 201.768 260.933 201.316C263.175 199.555 264.698 197.004 265.131 194.287C265.424 192.446 265.205 190.48 264.178 188.89C263.781 188.274 263.274 187.73 262.77 187.188C261.709 186.049 260.632 184.897 259.299 184.049C256.788 182.453 253.433 182.102 250.611 183.141C247.788 184.18 245.578 186.58 244.886 189.356C244.57 190.623 244.556 191.945 244.736 193.235C245.12 195.987 246.431 198.658 248.594 200.546ZM282.755 181.806C281.301 174.996 278.102 168.538 273.521 163.17C270.73 170.267 266.692 176.904 261.63 182.714C261.362 183.022 261.558 183.486 261.762 183.836C262.277 184.72 262.813 185.628 263.638 186.255C264.463 186.883 265.66 187.169 266.579 186.678C271.556 184.022 277.096 182.353 282.755 181.806Z" fill="#00160A"/>
<path fill-rule="evenodd" clip-rule="evenodd" d="M351.175 119.405C315.33 119.486 279.484 119.568 243.639 119.65C234.132 119.672 225.24 114.365 218.81 107.362C212.381 100.359 207.587 90.6013 203.316 82.1079C206.868 81.0712 211.357 82.0096 214.961 81.1555C223.795 79.0623 231.184 75.2787 240.117 73.9914C261.066 70.9728 283.737 72.4023 304.856 74.9489C279.092 66.943 252.194 62.5967 225.22 62.081C196.024 61.5229 166.898 65.4275 138.258 71.1208C114.032 75.9366 90.0615 82.0373 66.481 89.3887C71.5707 88.8427 78.7764 89.6865 79.6533 95.6627C76.9603 89.5697 67.687 89.2638 62.5205 93.4692C57.3541 97.6746 55.2795 104.504 53.4707 110.915C55.0667 103.431 64.7954 100.03 71.9534 102.735C79.1115 105.441 83.8538 112.284 87.0666 119.229C91.4513 128.708 93.8329 139.014 95.1049 149.379C96.3748 159.728 95.7912 171.93 87.4493 178.184C79.9078 183.839 68.5229 181.841 61.4591 175.6C54.3952 169.36 50.9833 159.919 49.4311 150.622C46.4142 132.552 49.5686 113.509 58.2508 97.3775C60.1931 93.7686 62.7013 90.0576 66.5864 88.7527C103.893 76.2224 142.555 67.73 181.678 63.4713C211.08 60.271 241.009 59.4782 270.06 65.0178C299.112 70.5575 327.38 82.7557 348.921 103.021C357.355 110.956 369.678 113.028 381.248 113.496C392.819 113.965 404.708 113.245 415.667 116.987C434.243 123.332 446.222 140.931 456.848 157.437C459.717 161.894 462.615 166.41 464.29 171.439C469.467 186.987 462.373 205.369 470.183 219.775C465.428 221.233 460.322 221.527 455.431 220.625C456.367 224.971 450.597 227.36 446.192 227.96C426.774 230.604 407.355 233.249 387.937 235.893C387.281 233.936 387.889 231.616 389.42 230.232C356.726 226.949 324.012 223.859 291.281 220.964C287.618 220.641 283.272 220.606 281.074 223.553C269.078 239.639 242.046 241.141 228.342 226.483C223.293 221.082 219.57 213.755 212.617 211.243C185.029 201.277 157.442 191.311 129.854 181.345C118.366 177.195 106.66 173 94.4573 172.46C101.63 170.609 109.125 173.135 116.099 175.629C149.254 187.486 182.408 199.342 215.562 211.199C211.62 197.46 209.634 182.696 213.428 168.916C217.223 155.135 227.749 142.578 241.71 139.514C259.73 135.558 278.266 148.714 285.503 165.684C292.741 182.654 290.893 202.152 286.318 220.024C302.657 219.287 319.074 220.312 335.195 223.076C325.415 206.366 317.499 188.567 311.639 170.114C318.968 185.965 326.297 201.815 333.625 217.665C335.223 221.12 337.65 225.124 341.456 225.028C333.114 207.534 324.773 190.04 316.432 172.545C364.241 181.616 413.715 190.275 461.162 179.468C446.805 179.351 432.603 182.995 418.247 182.736C402.417 182.45 386.71 177.278 373.809 168.101C375.417 170.564 371.1 172.509 368.164 172.341C353.848 171.525 339.532 170.709 325.216 169.893C320.691 169.635 315.991 169.328 312.028 167.129C305.073 163.27 302.322 154.84 300.161 147.185C325.881 148.875 351.215 156.194 373.874 168.48C399.689 182.477 431.137 185.7 459.255 177.231C453.547 159.093 447.146 139.899 432.447 127.836C415.342 113.797 391.236 112.832 369.132 113.865C400.485 121.671 428.649 141.616 446.421 168.6C428.013 142.825 400.755 123.497 370.341 114.655C366.864 113.644 362.306 113.141 360.375 116.205C358.564 119.079 354.572 119.397 351.175 119.405ZM231.511 149.148C239.544 143.815 250.148 141.924 259.076 145.568C261.35 146.496 263.478 147.753 265.498 149.15C272.98 154.324 279.059 161.508 282.924 169.743C287.627 179.764 288.999 191.021 289.35 202.085C289.636 199.025 289.764 195.95 289.732 192.877C289.614 181.587 287.247 170.134 281.476 160.429C275.704 150.725 266.286 142.924 255.26 140.49C244.235 138.056 231.749 141.583 224.647 150.36C222.539 152.966 220.935 155.938 219.422 158.928C217.322 163.077 215.355 167.349 214.41 171.902C217.838 162.889 223.477 154.482 231.511 149.148ZM204.902 82.7941C209.801 92.3616 214.84 102.121 222.596 109.563C230.353 117.005 241.466 121.833 251.923 119.343C262.543 116.814 273.607 117.147 284.517 117.494C303.78 118.108 323.043 118.721 342.305 119.334C349.531 119.564 357.984 119.225 362.206 113.356C351.884 106.641 342.705 98.3293 332.768 91.0574C322.83 83.7855 311.811 77.4384 299.652 75.4929C294.389 74.6509 289.032 74.6534 283.702 74.658C272.541 74.6676 261.379 74.6773 250.218 74.6869C245.668 74.6908 241.061 74.7014 236.652 75.828C233.125 76.7293 229.819 78.3216 226.399 79.5683C219.545 82.0663 212.187 83.1705 204.902 82.7941ZM335.927 195.26C339.058 204.78 342.661 214.145 346.716 223.309C347.084 224.141 347.615 225.09 348.521 225.17C363.4 226.473 378.28 227.776 393.159 229.08C393.813 229.137 394.501 229.189 395.1 228.919C395.643 228.674 396.039 228.197 396.416 227.734C399.746 223.647 403.076 219.559 406.406 215.472C403.026 210.646 397.606 207.557 391.961 205.869C386.315 204.181 380.383 203.756 374.509 203.288C373.715 203.225 372.635 202.5 373.197 201.936C379.04 202.25 384.86 202.984 390.597 204.132C394.521 204.917 398.679 206.057 401.263 209.113C404.733 202.69 408.203 196.267 411.674 189.844C428.566 187.642 445.4 184.992 462.153 181.898C447.788 183.184 433.424 184.47 419.06 185.757C415.876 186.042 412.687 186.327 409.491 186.337C405.51 186.348 401.542 185.932 397.583 185.517C392.777 185.012 387.972 184.507 383.166 184.003C361.499 181.728 339.726 179.434 318.687 173.777C325.641 190.627 333.641 207.045 342.626 222.906C343.323 224.136 344.646 225.559 345.877 224.863C339.579 210.107 334.129 194.989 329.563 179.609C329.249 178.549 329.005 177.227 329.827 176.488C331.82 182.433 333.755 188.397 335.631 194.38C346.031 194.471 356.418 195.918 366.446 198.672C370.555 199.801 375.276 201.062 378.802 198.671C374.656 194.619 369.468 191.643 363.877 190.11C360.742 189.25 357.503 188.84 354.277 188.432C347.307 187.552 340.337 186.671 333.366 185.79C343.001 185.024 352.642 186.722 362.158 188.414C364.037 188.748 365.93 189.086 367.704 189.791C369.573 190.533 371.259 191.663 372.93 192.784C375.868 194.756 378.807 196.729 381.745 198.701C379.503 200.674 376.343 201.314 373.362 201.149C370.38 200.984 367.493 200.102 364.598 199.367C355.23 196.989 345.554 196.121 335.927 195.26ZM244.496 236.002C245.141 236.229 245.973 236.391 246.415 235.869C244.533 235.692 242.715 234.889 241.316 233.618C250.827 237.721 262.339 236.816 271.092 231.275C273.234 229.919 275.207 228.314 277.159 226.696C280.416 223.996 283.722 221.139 285.591 217.344C287.016 214.449 287.51 211.191 287.821 207.979C288.833 197.54 288.089 186.845 284.773 176.895C281.458 166.945 275.483 157.767 267.163 151.382C263.239 148.37 258.758 145.972 253.906 145.006C246.768 143.584 239.193 145.402 233.009 149.24C226.826 153.078 221.968 158.817 218.437 165.18C212.768 175.399 210.4 187.714 213.38 199.014C214.374 202.78 215.932 206.377 217.709 209.843C223.545 221.223 232.429 231.765 244.496 236.002ZM405.771 218.316C402.566 222.626 398.928 226.592 395.298 230.549C394.703 231.197 393.556 231.817 393.098 231.066C392.674 230.37 391.619 230.317 390.921 230.737C390.223 231.158 389.797 231.903 389.401 232.616C389.089 233.179 388.777 233.741 388.464 234.304C408.572 231.98 428.631 229.246 448.627 226.104C450.147 225.865 451.822 225.534 452.747 224.305C453.112 223.821 453.32 223.24 453.521 222.668C455.657 216.601 457.536 210.443 459.15 204.217C455.319 205.284 451.487 206.351 447.656 207.418C446.1 207.851 444.543 208.285 442.972 208.662C432.725 211.125 422.014 211.179 411.778 213.686C411.088 213.855 410.395 214.037 409.755 214.346C408.049 215.171 406.901 216.796 405.771 218.316ZM372.857 170.869C365.683 163.951 355.837 160.695 346.348 157.647C342.752 156.492 339.156 155.337 335.559 154.182C333.396 153.488 331.233 152.793 329.044 152.186C319.99 149.675 310.588 148.687 301.22 147.971C301.092 147.961 300.958 147.952 300.841 148.006C300.474 148.174 300.59 148.72 300.766 149.084C302.834 153.353 305.096 157.528 307.545 161.591C308.603 163.346 309.724 165.114 311.307 166.415C313.414 168.147 316.178 168.906 318.899 169.102C321.62 169.298 324.348 168.979 327.069 168.793C333.128 168.378 339.232 168.621 345.238 169.516C348.516 170.005 351.764 170.687 355.051 171.11C360.958 171.871 366.973 171.79 372.857 170.869ZM451.956 204.751C454.344 204.114 456.772 203.623 459.22 203.282C460.32 199.206 461.42 195.129 462.52 191.053C460.21 191.722 457.866 192.277 455.5 192.714C453.627 193.06 451.74 193.332 449.853 193.594C436.499 195.45 423.075 196.804 409.62 197.652C408.878 197.699 408.413 198.451 408.077 199.114C406.346 202.528 404.615 205.942 402.884 209.355C402.751 209.617 402.615 209.915 402.707 210.194C402.77 210.388 402.932 210.531 403.087 210.664C403.875 211.339 404.663 212.013 405.451 212.688C406.195 213.325 407.147 214.005 408.067 213.669C419.051 209.665 431.202 210.412 442.526 207.506C445.698 206.692 448.791 205.594 451.956 204.751ZM62.6944 154.42C60.915 157.871 59.1356 161.323 57.3561 164.775C57.039 165.39 56.7132 166.043 56.7526 166.734C56.7828 167.265 57.0265 167.757 57.2804 168.223C59.9733 173.171 64.4298 177.134 69.6575 179.231C70.3141 179.495 71.0184 179.734 71.7165 179.619C72.6023 179.473 73.2933 178.793 73.8925 178.125C79.362 172.023 82.427 163.93 82.9032 155.75C83.3793 147.57 81.3446 139.331 77.5907 132.047C76.8838 132.769 76.1769 133.491 75.47 134.212C73.8973 135.817 72.1936 137.94 72.9263 140.064C74.4976 144.62 74.3976 149.988 71.6119 153.921C70.3689 155.676 68.3072 157.165 66.2051 156.713C64.9271 156.438 63.8954 155.495 63.0859 154.469C62.1147 153.237 61.3658 151.831 60.8859 150.338C59.2068 152.532 56.8531 154.201 54.228 155.061C53.1979 155.399 53.2138 156.85 53.4642 157.905C54.1035 160.597 54.9325 163.243 55.943 165.818C57.4232 162.078 59.2619 158.48 61.4256 155.09C61.7132 154.639 62.2441 154.132 62.6944 154.42ZM70.6884 119.949C76.4095 125.295 79.5959 132.8 81.8759 140.291C82.3582 141.875 82.8076 143.471 83.1548 145.09C85.796 157.409 82.0468 170.921 73.4355 180.118C76.6551 179.98 79.8493 179.27 82.8235 178.029C83.4204 177.78 84.0231 177.5 84.4762 177.039C85.1636 176.339 85.4096 175.33 85.6279 174.374C86.992 168.396 88.3615 162.381 88.6634 156.257C89.0859 147.689 87.4011 139.132 84.8583 130.939C84.3723 129.373 83.8543 127.815 83.2297 126.3C81.1898 121.35 78.0029 116.878 73.9908 113.333C71.5504 111.178 68.3001 109.273 65.187 110.227C63.2576 110.819 61.8105 112.4 60.5756 113.996C54.1489 122.302 50.8084 132.942 51.3342 143.432C52.4795 136.251 55.2322 129.331 59.3322 123.325C60.4185 121.734 61.6344 120.172 63.2664 119.149C64.8985 118.125 67.0309 117.72 68.7734 118.542C69.4927 118.882 70.1072 119.406 70.6884 119.949ZM412.49 191.003C412.106 191.323 411.872 191.784 411.649 192.232C410.95 193.633 410.251 195.033 409.553 196.434C427.252 195.142 445.03 193.839 462.338 189.917C462.962 188.137 463.174 186.213 462.953 184.34C462.926 184.112 462.887 183.872 462.741 183.696C462.463 183.361 461.948 183.401 461.519 183.471C450.087 185.321 438.655 187.171 427.224 189.022C423.149 189.681 419.057 190.342 414.93 190.422C414.077 190.438 413.146 190.456 412.49 191.003ZM61.8141 140.084C62.5353 137.802 63.9251 135.635 66.022 134.481C67.9232 133.434 68.6987 131.148 69.3152 129.067C69.953 126.914 70.5907 124.761 71.2285 122.609C71.3312 122.262 71.0577 121.927 70.8051 121.668C69.576 120.409 68.1488 119.06 66.3889 119.049C64.928 119.041 63.6361 119.975 62.5812 120.986C59.3997 124.035 57.3578 128.066 55.6004 132.107C54.9661 133.565 54.3603 135.038 53.8593 136.547C51.9429 142.321 51.6094 148.612 52.9044 154.556C54.6894 153.861 56.5019 153.152 58.0174 151.98C59.5329 150.809 60.7374 149.091 60.8374 147.178C60.9625 144.788 61.0928 142.367 61.8141 140.084ZM70.2634 109.459C75.3418 112.46 79.5688 116.885 82.3352 122.094C82.8774 123.116 83.3643 124.165 83.8255 125.225C90.8348 141.337 91.6936 160.036 86.1906 176.723C87.3564 175.666 88.9276 175.154 90.1294 174.139C92.5878 172.062 92.9491 168.468 93.0886 165.253C93.6911 151.362 93.4256 136.998 87.9154 124.233C85.8979 119.559 83.2004 115.179 79.9342 111.274C79.4005 110.636 78.8278 109.992 78.0715 109.646C77.2685 109.278 76.3507 109.286 75.4675 109.305C73.7324 109.342 71.9977 109.394 70.2634 109.459ZM466.63 189.072C466.462 187.19 465.611 185.449 464.981 183.667C464.352 181.885 463.947 179.882 464.668 178.135C465.56 175.972 465.469 173.493 464.793 171.253C464.116 169.012 462.891 166.977 461.55 165.059C458.963 161.358 455.898 157.991 452.455 155.07C453.841 163.927 458.335 171.939 462.541 179.857C463.306 181.297 464.076 182.778 464.299 184.393C464.486 185.748 464.278 187.124 464.048 188.473C463.166 193.668 461.973 198.81 460.48 203.863C460.163 204.936 460.694 206.06 461.242 207.036C463.221 210.565 465.611 213.864 468.347 216.845C467.551 214.324 466.754 211.802 465.957 209.281C464.934 206.048 463.9 202.681 464.369 199.322C464.857 195.837 466.943 192.578 466.63 189.072ZM68.856 103.257C65.786 102.375 62.1878 102.724 59.8315 104.881C55.207 109.113 52.3258 115.019 50.9902 121.144C49.6547 127.269 49.7784 133.629 50.4767 139.859C50.5541 130.172 54.0231 120.546 60.1424 113.036C61.2457 111.682 62.4699 110.366 64.0341 109.589C65.7673 108.728 67.7606 108.604 69.6926 108.496C72.1479 108.358 74.6032 108.219 77.0585 108.081C74.5747 106.073 71.9261 104.139 68.856 103.257ZM68.3697 135.155C66.9893 134.899 65.5784 135.675 64.7001 136.77C63.8218 137.865 63.376 139.237 62.975 140.582C62.3126 142.804 61.7204 145.075 61.6698 147.393C61.6192 149.712 62.1527 152.106 63.5532 153.955C64.2601 154.888 65.2322 155.689 66.3864 155.884C68.3527 156.217 70.1845 154.717 71.249 153.031C73.4761 149.503 73.5856 144.952 72.4305 140.943C72.3337 140.607 72.2259 140.268 72.0268 139.98C71.802 139.656 71.4672 139.408 71.3016 139.05C71.136 138.692 71.263 138.147 71.6544 138.098C70.8992 136.78 69.8633 135.432 68.3697 135.155ZM468.935 219.423C467.249 217.247 465.563 215.071 463.877 212.895C462.331 210.899 460.754 208.845 460.012 206.431C458.75 210.48 457.487 214.528 456.225 218.576C456.141 218.843 456.06 219.142 456.186 219.391C456.362 219.742 456.83 219.798 457.222 219.808C460.345 219.891 463.467 219.974 466.589 220.056C467.427 220.079 468.382 220.053 468.935 219.423ZM77.0164 130.813C77.1305 130.352 76.9206 129.879 76.7064 129.455C75.63 127.324 74.3068 125.318 72.7719 123.49C72.5495 123.225 72.0286 123.022 71.9563 123.36C71.1491 127.134 69.8698 130.807 68.1576 134.265C69.8018 134.713 71.2586 135.813 72.1388 137.272C73.2653 135.252 74.6822 133.394 76.3323 131.774C76.6165 131.494 76.9207 131.2 77.0164 130.813ZM288.992 205.397C289.084 205.117 289.015 204.789 288.817 204.57C288.601 205.214 288.604 205.93 288.827 206.572C289.032 206.226 289.091 205.797 288.987 205.409L288.992 205.397ZM291.382 220.578C291.216 220.651 291.05 220.725 290.884 220.798C291.415 221.049 292.058 221.048 292.589 220.798C292.231 220.614 291.809 220.561 291.417 220.652L291.382 220.578Z" fill="#00160A"/>
<path fill-rule="evenodd" clip-rule="evenodd" d="M286.381 202.604C285.863 202.604 285.394 202.813 285.055 203.153C284.716 203.492 284.506 203.961 284.506 204.479C284.506 204.798 284.585 205.098 284.727 205.361C284.801 205.5 284.895 205.63 285.005 205.747C284.873 205.839 284.753 205.946 284.649 206.066C284.365 206.395 284.193 206.824 284.193 207.292C284.193 207.664 284.301 208.011 284.488 208.302C284.681 208.603 284.958 208.846 285.286 208.996L286.289 209.456L285.378 210.08C284.474 210.7 283.881 211.74 283.881 212.919C283.881 213.37 283.967 213.8 284.125 214.194C284.189 214.355 284.267 214.513 284.357 214.665C284.199 214.747 284.046 214.839 283.899 214.941C282.744 215.738 282.005 217.079 282.005 218.858C282.005 219.091 282.018 219.316 282.042 219.533C281.826 219.5 281.605 219.483 281.38 219.483C280.171 219.483 279.077 219.973 278.285 220.765C277.493 221.557 277.004 222.651 277.004 223.859C277.004 225.068 277.493 226.162 278.285 226.954C279.077 227.746 280.171 228.236 281.38 228.236C282.599 228.236 283.701 227.736 284.493 226.895C285.279 226.06 285.756 224.892 285.756 223.547C285.756 223.316 285.742 223.091 285.715 222.871C285.932 222.904 286.155 222.922 286.381 222.922C287.59 222.922 288.684 222.432 289.476 221.64C290.268 220.848 290.757 219.754 290.757 218.545C290.757 217.57 290.438 216.668 289.898 215.941C289.792 215.798 289.677 215.662 289.554 215.532C289.688 215.418 289.812 215.293 289.926 215.161C290.444 214.559 290.757 213.775 290.757 212.919C290.757 211.923 290.334 211.026 289.657 210.398C289.467 210.222 289.257 210.068 289.032 209.938C289.258 209.836 289.459 209.69 289.626 209.512C289.94 209.177 290.132 208.726 290.132 208.23C290.132 207.75 289.952 207.313 289.656 206.981C289.357 206.646 288.939 206.419 288.469 206.367L287.51 206.26L287.999 205.429C288.163 205.15 288.257 204.825 288.257 204.479C288.257 203.961 288.047 203.492 287.707 203.153C287.368 202.813 286.899 202.604 286.381 202.604Z" fill="white" stroke="#00160A" stroke-width="1.86952"/>
<path fill-rule="evenodd" clip-rule="evenodd" d="M263.872 154.862C263.539 155.259 263.077 155.483 262.599 155.525C262.12 155.567 261.626 155.426 261.23 155.093C260.985 154.888 260.806 154.634 260.696 154.357C260.638 154.211 260.598 154.056 260.579 153.895C260.424 153.938 260.265 153.961 260.106 153.963C259.671 153.97 259.232 153.826 258.873 153.525C258.589 153.285 258.392 152.98 258.289 152.649C258.183 152.308 258.175 151.94 258.271 151.593L258.563 150.528L257.5 150.825C256.444 151.119 255.266 150.905 254.362 150.147C254.017 149.858 253.743 149.515 253.543 149.141C253.46 148.988 253.389 148.827 253.331 148.66C253.167 148.728 252.998 148.786 252.826 148.833C251.472 149.206 249.97 148.91 248.607 147.766C248.429 147.617 248.265 147.463 248.114 147.304C248 147.491 247.871 147.671 247.726 147.843C246.95 148.769 245.871 149.292 244.755 149.39C243.64 149.488 242.487 149.16 241.561 148.383C240.635 147.606 240.112 146.528 240.014 145.412C239.917 144.296 240.245 143.143 241.022 142.218C241.805 141.284 242.896 140.76 244.049 140.695C245.194 140.629 246.396 141.014 247.426 141.879C247.603 142.027 247.767 142.183 247.917 142.345C248.032 142.157 248.162 141.976 248.307 141.802C249.084 140.876 250.162 140.353 251.278 140.255C252.394 140.158 253.547 140.486 254.473 141.263C255.22 141.89 255.705 142.714 255.915 143.595C255.957 143.768 255.987 143.944 256.007 144.122C256.181 144.093 256.356 144.077 256.531 144.075C257.325 144.065 258.127 144.329 258.783 144.879C259.546 145.52 259.961 146.421 260.006 147.343C260.019 147.601 260.003 147.861 259.957 148.117C260.181 148.01 260.422 147.949 260.665 147.936C261.124 147.911 261.593 148.053 261.973 148.372C262.34 148.68 262.56 149.1 262.623 149.54C262.687 149.984 262.593 150.45 262.331 150.844L261.796 151.647L262.748 151.807C263.066 151.86 263.375 151.997 263.641 152.22C264.037 152.553 264.262 153.015 264.303 153.493C264.345 153.971 264.205 154.466 263.872 154.862Z" fill="white" stroke="#00160A" stroke-width="1.86952"/>
<path fill-rule="evenodd" clip-rule="evenodd" d="M255.131 160.374C254.708 160.878 254.12 161.163 253.513 161.217C252.905 161.27 252.276 161.091 251.772 160.668C251.593 160.518 251.442 160.347 251.32 160.163C251.251 160.059 251.19 159.949 251.138 159.833C251.014 159.86 250.889 159.877 250.763 159.884C250.179 159.917 249.581 159.736 249.097 159.33C248.706 159.002 248.446 158.575 248.325 158.116C248.2 157.645 248.221 157.139 248.394 156.674L248.845 155.461L247.615 155.861C246.313 156.285 244.871 156.086 243.794 155.182C243.477 154.916 243.214 154.608 243.007 154.272C242.919 154.129 242.84 153.98 242.771 153.824C242.612 153.891 242.45 153.951 242.284 154.004C240.657 154.525 238.892 154.295 237.584 153.197C237.46 153.093 237.343 152.984 237.235 152.87L236.767 152.377L236.315 152.884C235.285 154.037 233.938 154.726 232.58 154.897C231.261 155.064 229.93 154.739 228.89 153.866C227.825 152.973 227.273 151.679 227.229 150.316C227.185 148.917 227.674 147.444 228.696 146.226C229.718 145.007 231.084 144.27 232.469 144.071C233.819 143.877 235.189 144.196 236.254 145.09C236.378 145.194 236.496 145.304 236.606 145.419L237.073 145.907L237.524 145.403C238.554 144.25 239.9 143.561 241.258 143.39C242.578 143.224 243.909 143.548 244.948 144.421C245.774 145.114 246.292 146.047 246.502 147.067C246.537 147.237 246.563 147.408 246.58 147.58C246.75 147.564 246.921 147.56 247.092 147.566C247.935 147.595 248.76 147.886 249.439 148.455C250.431 149.288 250.888 150.53 250.804 151.78C250.787 152.032 250.749 152.281 250.689 152.524C250.923 152.461 251.164 152.436 251.402 152.446C251.909 152.468 252.412 152.651 252.831 153.002C253.229 153.336 253.491 153.773 253.61 154.241C253.731 154.722 253.702 155.236 253.516 155.706C253.401 155.995 253.231 156.256 253.02 156.475C253.334 156.437 253.643 156.461 253.933 156.54C254.255 156.628 254.564 156.786 254.837 157.015C255.342 157.438 255.627 158.025 255.68 158.633C255.733 159.241 255.555 159.87 255.131 160.374Z" fill="white" stroke="#00160A" stroke-width="1.86952"/>
<path fill-rule="evenodd" clip-rule="evenodd" d="M87.0761 145.666C86.5582 145.666 86.0893 145.876 85.7499 146.215C85.4105 146.555 85.2006 147.024 85.2006 147.542C85.2006 147.86 85.28 148.161 85.4215 148.423C85.4963 148.562 85.5895 148.692 85.7002 148.81C85.5678 148.901 85.4482 149.008 85.3441 149.129C85.0599 149.458 84.888 149.886 84.888 150.355C84.888 150.727 84.9961 151.073 85.183 151.365C85.376 151.666 85.6527 151.908 85.9805 152.059L86.9837 152.519L86.0732 153.142C85.1689 153.762 84.5754 154.802 84.5754 155.981C84.5754 156.432 84.6619 156.862 84.8195 157.256C84.8841 157.418 84.9615 157.575 85.0519 157.728C84.8939 157.81 84.7411 157.902 84.5941 158.003C83.4385 158.801 82.6999 160.141 82.6999 161.921C82.6999 162.153 82.7125 162.378 82.737 162.595C82.5211 162.563 82.2999 162.546 82.0747 162.546C80.8663 162.546 79.7722 163.036 78.9803 163.827C78.1884 164.619 77.6985 165.713 77.6985 166.922C77.6985 168.13 78.1884 169.224 78.9803 170.016C79.7722 170.808 80.8663 171.298 82.0747 171.298C83.2935 171.298 84.3958 170.799 85.1875 169.958C85.9735 169.123 86.451 167.954 86.451 166.609C86.451 166.379 86.4369 166.153 86.4097 165.934C86.627 165.967 86.8495 165.984 87.0761 165.984C88.2846 165.984 89.3786 165.494 90.1706 164.702C90.9625 163.91 91.4523 162.816 91.4523 161.608C91.4523 160.632 91.1331 159.731 90.5931 159.004C90.4871 158.861 90.3722 158.724 90.2488 158.595C90.3824 158.48 90.507 158.356 90.6213 158.223C91.1393 157.621 91.4523 156.838 91.4523 155.981C91.4523 154.985 91.0287 154.088 90.3518 153.461C90.1618 153.285 89.9522 153.13 89.727 153.001C89.9528 152.898 90.154 152.752 90.3205 152.575C90.6348 152.239 90.8272 151.788 90.8272 151.293C90.8272 150.813 90.6472 150.375 90.351 150.044C90.0518 149.709 89.6342 149.482 89.1637 149.43L88.2044 149.323L88.694 148.491C88.8579 148.213 88.9516 147.888 88.9516 147.542C88.9516 147.024 88.7417 146.555 88.4023 146.215C88.0629 145.876 87.594 145.666 87.0761 145.666Z" fill="white" stroke="#00160A" stroke-width="1.86952"/>
<path fill-rule="evenodd" clip-rule="evenodd" d="M87.0761 162.545C85.8631 162.545 84.7653 163.039 83.9737 163.851C83.1848 164.661 82.7011 165.786 82.7021 167.05C82.7024 167.45 82.751 167.835 82.8422 168.201C82.525 167.967 82.1861 167.776 81.8334 167.627C81.235 167.373 80.5771 167.234 79.8866 167.234C78.5055 167.234 77.2552 167.794 76.3501 168.699C75.4451 169.604 74.8853 170.854 74.8853 172.235C74.8853 173.616 75.4451 174.867 76.3501 175.772C77.2552 176.677 78.5055 177.236 79.8866 177.236C81.5988 177.236 83.1099 176.376 84.0114 175.065C84.1259 174.898 84.23 174.725 84.3234 174.547C84.4834 174.667 84.6512 174.775 84.8253 174.87C85.4013 175.183 86.0617 175.361 86.7635 175.361C87.8857 175.361 88.9016 174.906 89.637 174.171C90.3723 173.435 90.8272 172.419 90.8272 171.297C90.8272 170.83 90.7486 170.382 90.6802 169.404C91.1673 168.699 91.4523 167.843 91.4523 166.921C91.4523 165.713 90.9625 164.619 90.1706 163.827C89.3786 163.035 88.2846 162.545 87.0761 162.545Z" fill="white" stroke="#00160A" stroke-width="1.86952"/>
<path fill-rule="evenodd" clip-rule="evenodd" d="M75.823 172.548C74.3725 172.548 73.0501 173.097 72.0488 173.998C71.0345 174.911 70.3489 176.185 70.1928 177.617C70.1713 177.814 70.1603 178.01 70.1592 178.205C69.966 178.185 69.7699 178.174 69.5713 178.174C68.0176 178.174 66.6109 178.804 65.5927 179.822C64.5745 180.841 63.9447 182.247 63.9447 183.801C63.9447 185.355 64.5745 186.761 65.5927 187.78C66.6109 188.798 68.0176 189.428 69.5713 189.428C70.7285 189.428 71.8042 189.078 72.6984 188.479C73.6203 187.862 74.3496 186.979 74.7767 185.941C74.8727 185.707 74.9523 185.469 75.0155 185.227C75.2195 185.375 75.4323 185.51 75.6522 185.628C76.447 186.058 77.3569 186.302 78.3237 186.302C79.5807 186.302 80.7414 185.89 81.678 185.193C82.6379 184.479 83.3627 183.467 83.7141 182.293C83.7713 182.102 83.8178 181.909 83.854 181.715C84.0427 181.775 84.2328 181.823 84.4232 181.857C84.6755 181.902 84.9353 181.925 85.2006 181.925C86.4091 181.925 87.5031 181.436 88.2951 180.644C89.087 179.852 89.5768 178.758 89.5768 177.549C89.5768 176.341 89.087 175.247 88.2951 174.455C87.5031 173.663 86.4091 173.173 85.2006 173.173C83.6906 173.173 82.3593 173.938 81.5729 175.101C81.3594 175.417 81.1881 175.759 81.0631 176.118C80.9218 175.761 80.744 175.417 80.5322 175.094C79.527 173.561 77.7933 172.548 75.823 172.548Z" fill="white" stroke="#00160A" stroke-width="1.86952"/>
<path fill-rule="evenodd" clip-rule="evenodd" d="M39.563 147.541C38.0093 147.541 36.6026 148.171 35.5844 149.189C34.5662 150.207 33.9364 151.614 33.9364 153.168C33.9364 154.509 34.4056 155.741 35.1891 156.707C35.9872 157.692 37.1112 158.402 38.3972 158.672C38.6864 158.733 38.977 158.77 39.2666 158.785C39.102 159.029 38.9581 159.285 38.8354 159.548C38.4998 160.269 38.3126 161.073 38.3126 161.92C38.3126 163.537 38.995 164.995 40.0876 166.021C40.5123 166.42 40.9982 166.753 41.5285 167.005C40.9806 166.876 40.3999 166.895 39.8517 167.072C39.2155 167.277 38.6686 167.681 38.2836 168.211C37.9085 168.726 37.6875 169.361 37.6875 170.047C37.6875 170.91 38.0373 171.692 38.603 172.258C39.1687 172.823 39.9501 173.173 40.8133 173.173C41.4997 173.173 42.1345 172.952 42.65 172.577C43.1792 172.192 43.5831 171.645 43.7882 171.009C43.9592 170.479 43.9818 169.918 43.866 169.386C44.1293 169.895 44.4532 170.362 44.8388 170.773C45.6349 171.62 46.6886 172.22 47.8697 172.574C48.0244 172.621 48.1795 172.662 48.335 172.699C48.3221 172.855 48.3154 173.013 48.3154 173.173C48.3154 174.418 48.7197 175.569 49.4045 176.501C50.1068 177.457 51.1038 178.182 52.2618 178.544C52.4047 178.588 52.5486 178.627 52.6934 178.66C52.6897 178.808 52.6918 178.957 52.6999 179.107C52.7797 180.593 53.4367 181.926 54.4504 182.886C55.4587 183.841 56.8201 184.426 58.3182 184.426C58.4729 184.426 58.6263 184.42 58.7776 184.407L59.2249 184.37L59.4031 184.782C59.8418 185.797 60.5706 186.656 61.4847 187.257C62.3705 187.839 63.4307 188.177 64.5699 188.177C66.1236 188.177 67.5303 187.547 68.5485 186.529C69.5667 185.511 70.1965 184.104 70.1965 182.551C70.1965 180.997 69.5667 179.59 68.5485 178.572C67.5303 177.554 66.1236 176.924 64.5699 176.924C64.4145 176.924 64.2606 176.93 64.109 176.943L63.6627 176.979L63.4849 176.568C62.8392 175.075 61.566 173.918 59.9982 173.428C59.8555 173.384 59.7115 173.345 59.5668 173.312C59.5704 173.164 59.5683 173.015 59.5602 172.865C59.4913 171.586 58.9947 170.42 58.2124 169.494C57.4072 168.541 56.2998 167.84 55.0417 167.528C54.8768 167.487 54.711 167.453 54.5448 167.427C54.5596 167.26 54.5671 167.092 54.5671 166.921C54.5671 165.062 53.6648 163.413 52.2747 162.389C52.1673 162.31 52.0571 162.235 51.9446 162.164C51.9803 162.039 52.008 161.913 52.0279 161.788C52.0533 161.627 52.0664 161.463 52.0664 161.295C52.0664 160.263 51.5661 159.347 50.7956 158.779C50.6335 158.659 50.4603 158.555 50.2786 158.469C50.4063 158.303 50.5243 158.13 50.6321 157.952C51.1458 157.103 51.4413 156.108 51.4413 155.043C51.4413 153.489 50.8115 152.083 49.7933 151.065C48.7751 150.046 47.3684 149.417 45.8147 149.417C45.3184 149.417 44.837 149.481 44.3787 149.601C44.2534 149.634 44.1288 149.671 44.0049 149.713C43.9248 149.611 43.8413 149.511 43.7543 149.414C42.7241 148.264 41.228 147.541 39.563 147.541Z" fill="white" stroke="#00160A" stroke-width="1.86952"/>
<path fill-rule="evenodd" clip-rule="evenodd" d="M37.6875 138.788C36.1337 138.788 34.7271 139.418 33.7089 140.436C32.6907 141.454 32.0609 142.861 32.0609 144.415C32.0609 145.455 32.3431 146.43 32.8354 147.266C33.3455 148.132 34.0807 148.849 35.2726 149.776C35.5072 151.106 36.2092 152.274 37.2022 153.106C38.1794 153.925 39.4388 154.417 40.8133 154.417C42.0695 154.417 43.2296 154.006 44.1658 153.31C45.1254 152.597 45.8503 151.585 46.2022 150.413C46.2585 150.225 46.3046 150.035 46.3406 149.845C46.5282 149.901 46.7166 149.944 46.9047 149.976C47.1596 150.019 47.4221 150.041 47.6902 150.041C48.9035 150.041 50.0035 149.583 50.7992 148.837C51.5797 148.105 52.0664 147.095 52.0664 145.978C52.0664 144.86 51.5797 143.85 50.7992 143.118C50.0035 142.372 48.9035 141.914 47.6902 141.914C46.3057 141.914 45.068 142.511 44.2641 143.452L43.4514 144.403L43.1787 143.182C42.895 141.912 42.1818 140.805 41.2 140.019C40.2374 139.249 39.0162 138.788 37.6875 138.788Z" fill="white" stroke="#00160A" stroke-width="1.86952"/>
<path fill-rule="evenodd" clip-rule="evenodd" d="M42.0637 130.036C40.7698 130.036 39.6046 130.557 38.7999 131.393C38.7083 131.488 38.6209 131.588 38.5381 131.692C38.4127 131.641 38.2861 131.595 38.1586 131.555C37.616 131.38 37.0375 131.286 36.4371 131.286C34.8834 131.286 33.4767 131.916 32.4585 132.934C31.4403 133.953 30.8106 135.359 30.8106 136.913C30.8106 138.467 31.4403 139.873 32.4585 140.892C33.4767 141.91 34.8834 142.54 36.4371 142.54C37.5715 142.54 38.6276 142.204 39.5111 141.626C40.4229 141.03 41.1511 140.177 41.5924 139.169L42.3654 137.404L42.7759 139.287C42.9795 140.221 43.5279 141.035 44.2867 141.615C45.0443 142.194 46.0119 142.54 47.0651 142.54C48.2784 142.54 49.3783 142.081 50.174 141.335C50.9546 140.604 51.4413 139.594 51.4413 138.476C51.4413 137.358 50.9542 136.348 50.1719 135.616C49.3748 134.87 48.2722 134.412 47.0542 134.413C46.8399 134.413 46.6291 134.427 46.423 134.454C46.4423 134.25 46.4452 134.041 46.4305 133.831C46.3562 132.772 45.8441 131.826 45.0674 131.145C44.2812 130.456 43.2244 130.036 42.0637 130.036Z" fill="white" stroke="#00160A" stroke-width="1.86952"/>
<path d="M30.8106 140.038C33.918 140.038 36.4371 137.519 36.4371 134.412C36.4371 131.304 33.918 128.785 30.8106 128.785C27.7031 128.785 25.184 131.304 25.184 134.412C25.184 137.519 27.7031 140.038 30.8106 140.038Z" fill="white" stroke="#00160A" stroke-width="1.86952"/>
<path d="M50.1909 175.049C51.9173 175.049 53.3168 173.649 53.3168 171.923C53.3168 170.196 51.9173 168.797 50.1909 168.797C48.4646 168.797 47.0651 170.196 47.0651 171.923C47.0651 173.649 48.4646 175.049 50.1909 175.049Z" fill="white" stroke="#00160A" stroke-width="1.86952"/>
<path d="M32.6861 167.547C34.4124 167.547 35.8119 166.147 35.8119 164.421C35.8119 162.694 34.4124 161.295 32.6861 161.295C30.9597 161.295 29.5602 162.694 29.5602 164.421C29.5602 166.147 30.9597 167.547 32.6861 167.547Z" fill="white" stroke="#00160A" stroke-width="1.86952"/>
<path d="M23.3085 150.667C25.0349 150.667 26.4343 149.267 26.4343 147.541C26.4343 145.815 25.0349 144.415 23.3085 144.415C21.5821 144.415 20.1826 145.815 20.1826 147.541C20.1826 149.267 21.5821 150.667 23.3085 150.667Z" fill="white" stroke="#00160A" stroke-width="1.86952"/>
<path d="M28.3099 156.919C30.0362 156.919 31.4357 155.519 31.4357 153.793C31.4357 152.066 30.0362 150.667 28.3099 150.667C26.5835 150.667 25.184 152.066 25.184 153.793C25.184 155.519 26.5835 156.919 28.3099 156.919Z" fill="white" stroke="#00160A" stroke-width="1.86952"/>
<path fill-rule="evenodd" clip-rule="evenodd" d="M66.1328 99.4023C64.1475 99.4023 62.3501 100.207 61.0491 101.508C59.7481 102.809 58.9433 104.607 58.9433 106.592C58.9433 108.459 59.6554 110.161 60.8228 111.439C62.0005 112.728 63.6414 113.587 65.4824 113.752C65.5962 113.762 65.7097 113.77 65.8229 113.774C65.8718 113.877 65.923 113.978 65.977 114.078C66.541 115.124 67.3805 116 68.3984 116.608C69.3815 117.195 70.5311 117.532 71.7594 117.532C71.9549 117.532 72.1484 117.524 72.3391 117.507L73.3801 117.413L72.9705 118.374C72.7944 118.788 72.6971 119.243 72.6971 119.72C72.6971 120.67 73.082 121.53 73.7042 122.152C74.3265 122.774 75.1861 123.159 76.1356 123.159C77.0851 123.159 77.9447 122.774 78.567 122.152C79.1892 121.53 79.5741 120.67 79.5741 119.72C79.5741 118.921 79.3014 118.185 78.8438 117.602C78.3765 117.006 77.7167 116.567 76.9576 116.382C76.4831 116.266 75.9977 116.256 75.5319 116.34C75.9388 116.054 76.3108 115.724 76.6412 115.357C77.6872 114.194 78.3237 112.655 78.3237 110.968C78.3237 109.447 77.8063 108.046 76.9377 106.933C76.0502 105.796 74.7966 104.959 73.3538 104.599C73.2433 104.572 73.1324 104.547 73.0213 104.526C72.9886 104.417 72.9533 104.308 72.9153 104.201C72.4157 102.784 71.4846 101.57 70.2801 100.718C69.1083 99.8893 67.6774 99.4023 66.1328 99.4023Z" fill="white" stroke="#00160A" stroke-width="1.86952"/>
<path fill-rule="evenodd" clip-rule="evenodd" d="M81.137 113.782C80.1875 113.782 79.3279 114.167 78.7056 114.789C78.0834 115.411 77.6985 116.271 77.6985 117.22C77.6985 118.17 78.0834 119.029 78.7056 119.652C79.3279 120.274 80.1875 120.659 81.137 120.659C82.0865 120.659 82.9461 120.274 83.5683 119.652C84.1906 119.029 84.5754 118.17 84.5754 117.22C84.5754 116.271 84.1906 115.411 83.5683 114.789C82.9461 114.167 82.0865 113.782 81.137 113.782ZM72.3846 97.5273C70.6548 97.5273 69.0875 98.1946 67.9535 99.277C66.8303 100.349 66.1328 101.83 66.1328 103.466C66.1328 105.103 66.8303 106.584 67.9535 107.656C69.0875 108.738 70.6548 109.406 72.3846 109.406C74.1144 109.406 75.6816 108.738 76.8156 107.656C77.9388 106.584 78.6363 105.103 78.6363 103.466C78.6363 101.83 77.9388 100.349 76.8156 99.277C75.6816 98.1946 74.1144 97.5273 72.3846 97.5273Z" fill="white" stroke="#00160A" stroke-width="1.86952"/>
<path fill-rule="evenodd" clip-rule="evenodd" d="M78.6363 106.279C77.554 106.279 76.5572 106.646 75.7637 107.262C74.9526 107.892 74.3534 108.782 74.0922 109.807C74.064 109.917 74.0401 110.028 73.7016 110.239C73.0342 110.484 72.4639 110.93 72.0637 111.503C71.6747 112.06 71.4468 112.738 71.4468 113.469C71.4468 114.418 71.8317 115.278 72.4539 115.9C73.0761 116.522 73.9358 116.907 74.8853 116.907C75.8833 116.907 76.782 116.482 77.6236 115.548C77.7352 115.572 77.8468 115.592 77.9583 115.608C78.1797 115.64 78.406 115.657 78.6363 115.657C79.9311 115.657 81.1033 115.132 81.9518 114.284C82.8003 113.435 83.3251 112.263 83.3251 110.968C83.3251 109.673 82.8003 108.501 81.9518 107.653C81.1033 106.804 79.9311 106.279 78.6363 106.279Z" fill="white" stroke="#00160A" stroke-width="1.86952"/>
<path d="M57.693 116.908C60.4552 116.908 62.6944 114.809 62.6944 112.219C62.6944 109.63 60.4552 107.53 57.693 107.53C54.9308 107.53 52.6916 109.63 52.6916 112.219C52.6916 114.809 54.9308 116.908 57.693 116.908Z" fill="white" stroke="#00160A" stroke-width="1.86952"/>
<path fill-rule="evenodd" clip-rule="evenodd" d="M49.5657 97.5273C48.3525 97.5273 47.2525 97.9857 46.4568 98.7316C45.6762 99.4634 45.1895 100.473 45.1895 101.591C45.1895 102.449 45.476 103.243 45.9619 103.897C46.1377 104.133 46.3387 104.35 46.5626 104.542C46.2773 104.611 45.9965 104.709 45.7252 104.836C44.9965 105.177 44.3826 105.702 43.9561 106.348C43.5495 106.964 43.314 107.69 43.314 108.468C43.314 109.586 43.8007 110.595 44.5813 111.327C45.3769 112.073 46.4769 112.532 47.6902 112.532C49.2918 112.532 50.6984 111.732 51.463 110.527C51.6385 110.25 51.7802 109.952 51.8861 109.64C52.0459 109.931 52.2372 110.201 52.4559 110.444C53.2618 111.341 54.47 111.906 55.8175 111.906C57.0308 111.906 58.1308 111.448 58.9264 110.702C59.707 109.97 60.1937 108.96 60.1937 107.843C60.1937 106.725 59.707 105.715 58.9264 104.983C58.1308 104.237 57.0308 103.779 55.8175 103.779C55.3102 103.779 54.8228 103.859 54.3702 104.008L53.0226 104.45L53.6051 103.157C53.822 102.676 53.942 102.146 53.942 101.591C53.942 100.473 53.4552 99.4634 52.6747 98.7316C51.879 97.9857 50.779 97.5273 49.5657 97.5273Z" fill="white" stroke="#00160A" stroke-width="1.86952"/>
<path fill-rule="evenodd" clip-rule="evenodd" d="M46.4399 87.5244C45.2266 87.5244 44.1266 87.9827 43.331 88.7287C42.5504 89.4604 42.0637 90.4703 42.0637 91.588C42.0637 92.615 42.4745 93.5511 43.1467 94.2638C43.8393 94.9981 44.8081 95.4963 45.8992 95.621L46.4985 95.6895L46.4399 96.5894C46.4399 97.7072 46.9266 98.717 47.7072 99.4488C48.5028 100.195 49.6028 100.653 50.8161 100.653C51.4182 100.653 51.9922 100.54 52.5143 100.335L53.5256 99.9379L53.3608 101.012C53.3318 101.201 53.3168 101.394 53.3168 101.591C53.3168 102.709 53.8035 103.718 54.5841 104.45C55.3797 105.196 56.4797 105.654 57.693 105.654C58.9063 105.654 60.0063 105.196 60.8019 104.45C61.5825 103.718 62.0692 102.709 62.0692 101.591C62.0692 100.473 61.5825 99.4632 60.8019 98.7314C60.0063 97.9855 58.9063 97.5272 57.693 97.5272C57.091 97.5272 56.5171 97.6399 55.9953 97.8455L54.983 98.2443L55.1482 97.1689C55.1773 96.9797 55.1923 96.7862 55.1923 96.5894C55.1923 95.5625 54.7815 94.6263 54.1092 93.9137C53.4167 93.1795 52.4479 92.6814 51.3569 92.557L50.7574 92.4886L50.8161 91.588C50.8161 90.4703 50.3294 89.4604 49.5488 88.7287C48.7532 87.9827 47.6532 87.5244 46.4399 87.5244Z" fill="white" stroke="#00160A" stroke-width="1.86952"/>
<path d="M54.5671 123.784C56.984 123.784 58.9433 121.965 58.9433 119.721C58.9433 117.477 56.984 115.657 54.5671 115.657C52.1502 115.657 50.1909 117.477 50.1909 119.721C50.1909 121.965 52.1502 123.784 54.5671 123.784Z" fill="white" stroke="#00160A" stroke-width="1.86952"/>
<path fill-rule="evenodd" clip-rule="evenodd" d="M43.9387 120.071L42.8591 118.924C42.0539 118.068 40.8745 117.533 39.563 117.533C38.3497 117.533 37.2497 117.991 36.4541 118.737C35.6735 119.469 35.1868 120.478 35.1868 121.596C35.1868 122.714 35.6735 123.724 36.4541 124.456C37.2497 125.202 38.3497 125.66 39.563 125.66C40.7772 125.66 41.878 125.201 42.6736 124.451C43.4536 123.716 43.939 122.7 43.9389 121.572L43.9387 120.071ZM43.9398 119.996L45.0193 121.143C45.8245 121.998 47.0039 122.534 48.3154 122.534C49.8636 122.534 51.2291 121.787 52.3239 120.411C53.175 120.121 53.9041 119.591 54.415 118.907C54.9041 118.252 55.1923 117.455 55.1923 116.595C55.1923 115.477 54.7056 114.467 53.925 113.735C53.1294 112.99 52.0294 112.531 50.8161 112.531C49.2679 112.531 47.9023 113.278 46.8076 114.654C45.9558 114.945 45.2263 115.475 44.7155 116.163C44.2267 116.821 43.9394 117.624 43.9395 118.495L43.9398 119.996Z" fill="white" stroke="#00160A" stroke-width="1.86952"/>
<path fill-rule="evenodd" clip-rule="evenodd" d="M47.0651 117.532C45.8518 117.532 44.7518 117.991 43.9561 118.736C43.1756 119.468 42.6888 120.478 42.6888 121.596C42.6888 122.324 42.8955 123.008 43.2564 123.597C43.4395 123.896 43.6623 124.171 43.9221 124.412C43.5725 124.41 43.2178 124.45 42.8658 124.532C41.9036 124.758 41.0661 125.28 40.474 125.991C39.9043 126.676 39.563 127.537 39.563 128.473C39.563 129.591 40.0497 130.6 40.8303 131.332C41.6259 132.078 42.7259 132.536 43.9392 132.536C44.9725 132.536 45.9234 132.204 46.6744 131.645C47.4283 131.083 47.981 130.293 48.2049 129.383C48.3131 128.943 48.3403 128.492 48.2935 128.048C48.5486 128.43 48.8566 128.766 49.2037 129.045C49.9731 129.664 50.9737 130.036 52.0664 130.036C53.2797 130.036 54.3797 129.577 55.1754 128.831C55.9559 128.1 56.4427 127.09 56.4427 125.972C56.4427 124.854 55.9556 123.844 55.1733 123.112C54.3762 122.366 53.2736 121.909 52.0556 121.909C51.8412 121.909 51.6305 121.923 51.4244 121.95C51.4437 121.746 51.4466 121.537 51.4319 121.327C51.3576 120.268 50.8455 119.322 50.0687 118.641C49.2826 117.952 48.2257 117.532 47.0651 117.532Z" fill="white" stroke="#00160A" stroke-width="1.86952"/>
<path fill-rule="evenodd" clip-rule="evenodd" d="M215.619 161.138C214.406 161.138 213.306 161.596 212.51 162.342C211.729 163.074 211.243 164.084 211.243 165.201C211.243 165.93 211.449 166.613 211.81 167.202C211.993 167.501 212.216 167.776 212.476 168.017C212.126 168.016 211.772 168.055 211.42 168.138C210.457 168.363 209.62 168.885 209.028 169.597C208.458 170.281 208.117 171.142 208.117 172.078C208.117 173.196 208.603 174.206 209.384 174.938C210.18 175.684 211.28 176.142 212.493 176.142C213.526 176.142 214.477 175.809 215.228 175.25C215.982 174.689 216.535 173.898 216.759 172.989C216.867 172.549 216.894 172.098 216.847 171.654C217.102 172.036 217.41 172.372 217.757 172.651C218.527 173.269 219.528 173.641 220.62 173.641C221.834 173.641 222.934 173.183 223.729 172.437C224.51 171.705 224.996 170.695 224.996 169.578C224.996 168.459 224.509 167.449 223.727 166.717C222.93 165.972 221.827 165.514 220.609 165.514C220.395 165.514 220.184 165.528 219.978 165.556C219.997 165.351 220 165.143 219.986 164.933C219.911 163.873 219.399 162.928 218.623 162.246C217.836 161.557 216.78 161.138 215.619 161.138Z" fill="white" stroke="#00160A" stroke-width="1.86952"/>
<path fill-rule="evenodd" clip-rule="evenodd" d="M202.766 180.577C202.766 182.063 203.405 183.407 204.432 184.38C205.472 185.365 206.909 185.972 208.495 185.972C209.529 185.972 210.5 185.714 211.338 185.261C211.613 185.112 211.879 184.94 212.132 184.745C212.141 185.056 212.179 185.369 212.246 185.678C212.515 186.916 213.235 187.997 214.232 188.766C215.221 189.529 216.484 189.984 217.858 189.984C219.444 189.984 220.881 189.378 221.921 188.393C222.948 187.42 223.587 186.076 223.587 184.59C223.587 183.388 223.168 182.278 222.464 181.382C221.734 180.456 220.699 179.759 219.501 179.422C219.032 179.29 218.556 179.218 218.083 179.204C218.502 178.978 218.891 178.695 219.24 178.365C220.271 177.392 220.911 176.047 220.911 174.558C220.911 173.072 220.273 171.729 219.246 170.756C218.206 169.771 216.769 169.164 215.183 169.164C213.597 169.164 212.159 169.771 211.119 170.757C210.093 171.732 209.455 173.077 209.455 174.566L209.455 175.223L208.495 175.183C206.909 175.183 205.472 175.79 204.432 176.775C203.405 177.748 202.766 179.092 202.766 180.577Z" fill="white" stroke="#00160A" stroke-width="1.86952"/>
<path d="M48.9406 136.912C51.3575 136.912 53.3168 135.093 53.3168 132.849C53.3168 130.604 51.3575 128.785 48.9406 128.785C46.5237 128.785 44.5644 130.604 44.5644 132.849C44.5644 135.093 46.5237 136.912 48.9406 136.912Z" fill="white" stroke="#00160A" stroke-width="1.86952"/>
<path d="M42.0637 118.158C44.4806 118.158 46.4399 116.338 46.4399 114.094C46.4399 111.85 44.4806 110.03 42.0637 110.03C39.6468 110.03 37.6875 111.85 37.6875 114.094C37.6875 116.338 39.6468 118.158 42.0637 118.158Z" fill="white" stroke="#00160A" stroke-width="1.86952"/>
<path fill-rule="evenodd" clip-rule="evenodd" d="M43.9392 90.0244C42.7259 90.0244 41.6259 90.4827 40.8303 91.2287C40.0497 91.9604 39.563 92.9703 39.563 94.088C39.563 95.2103 40.0536 96.2237 40.8394 96.9565C41.1224 97.2204 41.4389 97.4435 41.7805 97.6174C41.4056 97.6875 41.0362 97.8081 40.6835 97.9774C39.8481 98.3783 39.1667 99.023 38.7521 99.8138C38.6751 99.9607 38.6075 100.112 38.5493 100.267C38.3888 100.214 38.2273 100.17 38.0654 100.134C37.7431 100.064 37.4073 100.027 37.0623 100.027C35.849 100.027 34.749 100.486 33.9534 101.231C33.1728 101.963 32.6861 102.973 32.6861 104.091C32.6861 105.209 33.1728 106.218 33.9534 106.95C34.749 107.696 35.849 108.154 37.0623 108.154C37.9157 108.154 38.7128 107.928 39.3876 107.534C40.0768 107.131 40.6387 106.554 40.9991 105.867C41.0761 105.72 41.1437 105.569 41.2018 105.414C41.3623 105.467 41.5238 105.511 41.6858 105.547C42.008 105.617 42.3438 105.654 42.6888 105.654C43.9021 105.654 45.0021 105.195 45.7978 104.45C46.5783 103.718 47.0651 102.708 47.0651 101.59C47.0651 100.468 46.5744 99.4544 45.7879 98.7227C45.5037 98.4584 45.1857 98.2352 44.8425 98.0617C45.2187 97.9918 45.5894 97.8711 45.9434 97.7013C46.6614 97.357 47.2653 96.8328 47.6846 96.1905C48.0843 95.5783 48.3154 94.8585 48.3154 94.088C48.3154 92.9703 47.8287 91.9604 47.0481 91.2287C46.2525 90.4827 45.1525 90.0244 43.9392 90.0244Z" fill="white" stroke="#00160A" stroke-width="1.86952"/>
<path fill-rule="evenodd" clip-rule="evenodd" d="M40.8133 84.3975C39.7546 84.3975 38.7824 84.7464 38.023 85.3309C37.2629 85.916 36.7158 86.7375 36.5181 87.6781C36.4852 87.8343 36.4625 87.9915 36.4496 88.1487C36.2903 88.1481 36.1295 88.1556 35.9678 88.1716C34.9606 88.2712 34.0539 88.6885 33.3668 89.317C32.6897 89.9362 32.2258 90.7611 32.097 91.6857C32.0793 91.813 32.0682 91.9402 32.0635 92.067C31.9396 92.1012 31.8165 92.1408 31.6945 92.1858C30.8721 92.4898 30.1704 93.0195 29.6796 93.6955C29.2104 94.3418 28.935 95.1222 28.935 95.9632C28.935 97.1405 29.475 98.1978 30.3295 98.9363C30.6308 99.1966 30.9656 99.4125 31.324 99.5754C30.9367 99.6673 30.5556 99.8007 30.188 99.9745C29.2426 100.421 28.4469 101.107 27.8941 101.948C27.3653 102.753 27.0595 103.701 27.0595 104.716C27.0595 106.179 27.6955 107.501 28.7174 108.459C29.7544 109.431 31.1878 110.03 32.7694 110.03C34.351 110.03 35.7844 109.431 36.8214 108.459C37.8434 107.501 38.4793 106.179 38.4793 104.716C38.4793 104.597 38.4752 104.479 38.4663 104.363L38.4366 103.974L38.7729 103.776C39.9925 103.06 40.8133 101.792 40.8133 100.339C40.8133 99.6054 40.6036 98.9174 40.2382 98.3247C39.8545 97.7024 39.2999 97.185 38.6359 96.8262L37.6186 96.2765L38.6357 95.7263C39.7008 95.1501 40.4864 94.165 40.7329 92.9949C40.7658 92.8387 40.7886 92.6816 40.8017 92.5244C40.9607 92.5251 41.1214 92.5176 41.2831 92.5016C42.3908 92.3919 43.3769 91.898 44.0829 91.1616C44.7691 90.4459 45.1895 89.5 45.1895 88.4611C45.1895 87.3433 44.7028 86.3335 43.9223 85.6017C43.1266 84.8558 42.0266 84.3975 40.8133 84.3975Z" fill="white" stroke="#00160A" stroke-width="1.86952"/>
<path d="M37.6875 131.286C40.1044 131.286 42.0637 129.467 42.0637 127.223C42.0637 124.979 40.1044 123.159 37.6875 123.159C35.2705 123.159 33.3112 124.979 33.3112 127.223C33.3112 129.467 35.2705 131.286 37.6875 131.286Z" fill="white" stroke="#00160A" stroke-width="1.86952"/>
<path d="M33.9364 127.535C36.3533 127.535 38.3126 125.716 38.3126 123.472C38.3126 121.228 36.3533 119.408 33.9364 119.408C31.5195 119.408 29.5602 121.228 29.5602 123.472C29.5602 125.716 31.5195 127.535 33.9364 127.535Z" fill="white" stroke="#00160A" stroke-width="1.86952"/>
<path fill-rule="evenodd" clip-rule="evenodd" d="M38.396 105.029C37.1337 105.029 35.9683 105.414 34.4698 106.282C33.1192 106.32 31.8851 106.794 30.9253 107.562C29.9642 108.331 29.2778 109.395 28.7648 111.005C27.3099 111.965 26.351 113.548 26.351 115.345C26.351 116.808 26.987 118.13 28.0089 119.088C29.0459 120.06 30.4793 120.659 32.0609 120.659C33.4533 120.659 34.7305 120.195 35.736 119.401C36.7486 118.601 37.4848 117.468 37.7864 116.144C37.8249 115.974 37.8557 115.805 37.8789 115.636C38.0491 115.65 38.2217 115.657 38.396 115.657C39.9776 115.657 41.411 115.059 42.448 114.087C43.4699 113.129 44.1059 111.806 44.1059 110.343C44.1059 108.88 43.4699 107.558 42.448 106.6C41.411 105.628 39.9776 105.029 38.396 105.029Z" fill="white" stroke="#00160A" stroke-width="1.86952"/>
<path d="M47.6902 89.3997C50.1071 89.3997 52.0664 87.5804 52.0664 85.3361C52.0664 83.0918 50.1071 81.2725 47.6902 81.2725C45.2733 81.2725 43.314 83.0918 43.314 85.3361C43.314 87.5804 45.2733 89.3997 47.6902 89.3997Z" fill="white" stroke="#00160A" stroke-width="1.86952"/>
</svg>
