<svg width="18" height="16" viewBox="0 0 18 16" fill="none" xmlns="http://www.w3.org/2000/svg">
<path d="M4.55556 4.5H13.4444M4.55556 8H8.11111M9 15L5.44444 11.5H2.77778C2.30628 11.5 1.8541 11.3156 1.5207 10.9874C1.1873 10.6592 1 10.2141 1 9.75V2.75C1 2.28587 1.1873 1.84075 1.5207 1.51256C1.8541 1.18437 2.30628 1 2.77778 1H15.2222C15.6937 1 16.1459 1.18437 16.4793 1.51256C16.8127 1.84075 17 2.28587 17 2.75V9.75C17 10.2141 16.8127 10.6592 16.4793 10.9874C16.1459 11.3156 15.6937 11.5 15.2222 11.5H12.5556L9 15Z" stroke="#7F7F7F" stroke-width="1.5" stroke-linecap="round" stroke-linejoin="round"/>
</svg>
