<svg width="22" height="20" viewBox="0 0 22 20" fill="none" xmlns="http://www.w3.org/2000/svg">
<path d="M16.5556 14.5L21 10M21 10L16.5556 5.5M21 10H5.44444M12.1111 14.5V15.625C12.1111 16.5201 11.7599 17.3786 11.1348 18.0115C10.5097 18.6444 9.66183 19 8.77778 19H4.33333C3.44928 19 2.60143 18.6444 1.97631 18.0115C1.35119 17.3786 1 16.5201 1 15.625V4.375C1 3.47989 1.35119 2.62145 1.97631 1.98851C2.60143 1.35558 3.44928 1 4.33333 1H8.77778C9.66183 1 10.5097 1.35558 11.1348 1.98851C11.7599 2.62145 12.1111 3.47989 12.1111 4.375V5.5" stroke="#3F3F46" stroke-width="2" stroke-linecap="round" stroke-linejoin="round"/>
</svg>
