<svg width="290" height="590" viewBox="0 0 290 590" fill="none" xmlns="http://www.w3.org/2000/svg">
<path fill-rule="evenodd" clip-rule="evenodd" d="M154.766 107.185C154.766 107.185 171.883 139.354 164.621 179.981C182.582 205.774 205.618 221.253 215.782 223.6C226.298 226.027 254.274 221.007 251.299 196.441C248.632 174.41 199.74 131.312 192.199 123.224C180.941 111.149 160.418 105.948 154.766 107.185Z" fill="#FFC2BD"/>
<path fill-rule="evenodd" clip-rule="evenodd" d="M220.151 151.298C206.166 136.021 198.464 128.896 194.62 124.61C177.944 106.01 166.762 106.211 148.791 103.062C148.791 103.062 153.952 127.832 146.689 168.459C153.969 176.684 184.254 200.785 190.773 206.704L220.151 151.298Z" fill="#597EF7"/>
<path fill-rule="evenodd" clip-rule="evenodd" d="M250.241 105.55C240.342 122.967 223.387 149.419 204.506 186.916C204.506 186.916 195.672 213.97 220.598 221.376C244.901 228.598 252.521 200.553 252.521 200.553C265.429 169.448 273.257 138.574 276.802 116.553C277.166 114.295 277.704 112.039 277.158 109.814C276.413 106.765 274.265 103.013 268.657 100.2C255.348 93.5231 250.241 105.55 250.241 105.55Z" fill="#FFC2BD"/>
<path fill-rule="evenodd" clip-rule="evenodd" d="M178.814 300.385C178.814 300.385 152.642 289.933 123.449 327.016C120.942 500.174 118.233 513.171 118.233 513.171C118.233 513.171 110.955 528.516 121.212 536.407H155.399C155.399 536.407 164.254 526.326 160.308 515.279C183.72 358.554 178.814 300.385 178.814 300.385Z" fill="#4E5C93"/>
<path fill-rule="evenodd" clip-rule="evenodd" d="M121.369 535.562L153.997 535.719L148.736 569.564L165.681 584.809C167.534 586.478 166.354 589.553 163.861 589.553H118.932L121.369 535.562Z" fill="#253368"/>
<path fill-rule="evenodd" clip-rule="evenodd" d="M81.1912 228.016C81.1912 228.016 36.7722 122.836 41.336 113.707C45.901 104.577 76.2902 92.9605 127.217 96.4664C178.363 99.9872 189.438 121.518 189.438 121.518C189.438 121.518 186.055 177.817 172.069 221.377C177.877 231.751 167.317 239.115 167.317 239.115C167.317 239.115 101.028 236.051 85.2609 236.881C77.8969 233.723 81.1912 228.016 81.1912 228.016Z" fill="#597EF7"/>
<path d="M185.083 134.357C185.346 134.336 185.576 134.531 185.597 134.794L185.627 135.229L185.666 135.941C185.675 136.115 185.683 136.3 185.692 136.495L185.726 137.419C185.903 142.753 185.738 149.713 185.002 158.088C183.901 170.603 181.685 184.142 178.104 198.472L177.775 199.777L172.573 221.317L172.701 221.579L172.851 221.9C173.117 222.485 173.383 223.134 173.631 223.832C174.305 225.727 174.726 227.62 174.768 229.401C174.87 233.763 172.691 236.774 167.662 237.658C167.403 237.703 167.155 237.53 167.11 237.27C167.064 237.011 167.237 236.763 167.497 236.718C172.036 235.92 173.905 233.337 173.813 229.423C173.774 227.758 173.374 225.959 172.731 224.152C172.493 223.481 172.237 222.856 171.982 222.296L171.758 221.82C171.712 221.727 171.675 221.653 171.647 221.6C171.606 221.523 171.587 221.437 171.592 221.351L171.605 221.265L176.848 199.547C180.611 184.779 182.922 170.849 184.051 158.005L184.174 156.549C184.822 148.621 184.946 142.037 184.756 136.989L184.713 135.989L184.646 134.871C184.624 134.609 184.82 134.378 185.083 134.357Z" fill="#253368"/>
<path fill-rule="evenodd" clip-rule="evenodd" d="M175.207 269.098C172.872 259.292 168.368 248.584 168.368 248.584L167.317 239.115C138.913 229.12 86.8384 237.011 86.8384 237.011C86.8384 237.011 85.9834 241.351 83.8801 247.136C69.7209 262.095 63.9413 311.947 63.9413 311.947L121.693 334.746L179.515 314.945C179.515 314.945 179.152 285.666 175.207 269.098Z" fill="#4E5C93"/>
<path fill-rule="evenodd" clip-rule="evenodd" d="M65.2387 304.764C65.2387 304.764 105.951 243.98 125.676 322.091C77.7638 489.756 69.8784 516.218 69.8784 516.218C69.8784 516.218 70.2318 530.419 60.7633 535.942H27.6249C27.6249 535.942 15.0002 528.052 31.5701 509.905C59.9743 333.168 65.2387 304.764 65.2387 304.764Z" fill="#4E5C93"/>
<path fill-rule="evenodd" clip-rule="evenodd" d="M2.06102 589.553H46.1913L62.3206 535.813H27.8393L21.9214 571.664L0.913555 585.788C-0.772802 586.922 0.0299286 589.553 2.06102 589.553Z" fill="#253368"/>
<path fill-rule="evenodd" clip-rule="evenodd" d="M92.6867 89.423L97.3214 43.7744L140.675 45.6798L138.461 95.1206L124.986 118.221L92.6867 89.423Z" fill="#FFC2BD"/>
<path fill-rule="evenodd" clip-rule="evenodd" d="M112.544 18.907C112.544 18.907 136.994 13.6638 143.066 25.2505C148.971 36.5186 147.668 76.2606 134.791 81.7503C124.295 86.2231 103.409 83.0035 99.2594 63.6036C99.2594 63.6036 95.7025 48.7039 97.8556 35.6362C100.01 22.5685 112.544 18.907 112.544 18.907Z" fill="#FFC2BD"/>
<path fill-rule="evenodd" clip-rule="evenodd" d="M99.7676 52.0425C99.7676 52.0425 93.7527 39.1416 88.4609 45.7539C83.1678 52.3661 91.0222 65.3467 98.4023 65.1451C105.782 64.9435 99.7676 52.0425 99.7676 52.0425Z" fill="#FFC2BD"/>
<path fill-rule="evenodd" clip-rule="evenodd" d="M146.265 48.2944C146.265 48.2944 150.087 33.1931 146.825 23.5728C143.562 13.9525 139.249 4.28612 135.613 9.12739C135.193 6.73911 132.247 1.8717 129.952 0.191569C127.656 -1.48856 119.849 8.43543 119.849 8.43543C119.849 8.43543 120.582 3.72856 117.565 6.49145C114.547 9.25433 96.5508 17.4148 93.4518 22.0171C90.3542 26.6195 91.1258 44.0742 91.1258 44.0742C91.1258 44.0742 96.7984 43.7966 99.346 54.7013C98.939 45.997 102.747 41.6224 104.676 39.9796C105.408 39.3574 105.85 38.4663 105.964 37.5129C106.185 35.6822 106.528 32.6082 106.737 29.5989C106.829 28.2734 107.849 27.2168 109.167 27.0488C122.59 25.3276 137.143 28.0444 142.319 29.1733C143.49 29.4284 144.35 30.4153 144.457 31.6088L145.337 41.5204C145.337 41.5204 145.959 43.2789 146.265 48.2944Z" fill="#253368"/>
<path d="M114.242 42.0909L122.699 42.7107C123.278 42.7531 123.712 43.2568 123.67 43.8357C123.63 44.3784 123.185 44.7946 122.653 44.8095L122.545 44.8071L114.241 44.1978L109.895 45.1514C109.363 45.268 108.838 44.9599 108.672 44.4537L108.643 44.3499C108.527 43.8183 108.835 43.2926 109.341 43.1265L109.445 43.0982L113.94 42.1125C114.006 42.098 114.073 42.0899 114.141 42.0884L114.242 42.0909Z" fill="#253368"/>
<path d="M140.033 43.5526C140.135 43.5451 140.238 43.5527 140.338 43.575L140.437 43.6022L143.68 44.6663C144.232 44.8472 144.532 45.441 144.351 45.9925C144.182 46.5096 143.649 46.806 143.129 46.6919L143.025 46.6635L139.979 45.664L131.679 46.2688C131.137 46.3084 130.66 45.9284 130.568 45.4038L130.555 45.297C130.515 44.7542 130.895 44.2778 131.42 44.1856L131.527 44.1724L140.033 43.5526Z" fill="#253368"/>
<path fill-rule="evenodd" clip-rule="evenodd" d="M99.9395 57.1179C99.9395 57.1179 106.497 62.7171 109.801 68.3898C114.997 62.4981 120.301 60.0986 120.301 60.0986C120.301 60.0986 124.147 62.3525 128.146 61.8273C129.183 60.6885 130.257 61.1938 130.257 61.1938C130.257 61.1938 135.491 63.3979 138.992 69.0805C140.743 65.2087 145.409 60.3002 145.409 60.3002C145.409 60.3002 145.222 86.071 126.287 85.6341C107.173 84.7941 101.265 73.9379 99.4878 64.9747C99.1094 62.1733 98.6465 55.0868 99.9395 57.1179Z" fill="#EFADAB"/>
<path fill-rule="evenodd" clip-rule="evenodd" d="M116.404 64.9287C116.404 64.9287 122.981 65.6841 131.955 65.5186C131.955 65.5186 130.106 71.0581 124.499 70.7071C122.112 70.5578 118.898 69.4489 116.404 64.9287Z" fill="white"/>
<path fill-rule="evenodd" clip-rule="evenodd" d="M116.404 64.9287C116.404 64.9287 122.981 65.6841 131.955 65.5186C131.955 65.5186 130.106 71.0581 124.499 70.7071C122.112 70.5578 118.898 69.4489 116.404 64.9287Z" stroke="#D18888" stroke-width="2.0265" stroke-linecap="round" stroke-linejoin="round"/>
<path d="M129.405 46.5613C129.635 46.5925 129.803 46.7861 129.809 47.0107L129.804 47.0865L129.427 49.8685L129.583 50.4259C129.618 50.556 129.656 50.6935 129.694 50.8379C129.915 51.6626 130.136 52.5423 130.342 53.4409C130.536 54.2882 130.707 55.1101 130.85 55.8913L130.955 56.4943C131.485 59.6389 131.449 61.6372 130.517 62.2991C129.688 62.887 128.211 62.9003 126.212 62.5252C125.537 62.3985 124.824 62.2298 124.091 62.0292C123.647 61.9079 123.215 61.7801 122.804 61.6507L122.399 61.521C122.081 61.4167 121.846 61.3353 121.716 61.2881C121.473 61.2002 121.348 60.9325 121.436 60.6902C121.524 60.4479 121.792 60.3227 122.034 60.4106L122.446 60.5531L122.689 60.6338C123.205 60.8026 123.762 60.9715 124.337 61.1289C125.047 61.3232 125.736 61.4862 126.384 61.6078C128.137 61.9367 129.431 61.9251 129.976 61.5379C130.5 61.1658 130.48 59.0722 129.931 56.0585C129.792 55.2921 129.623 54.4838 129.432 53.6495C129.28 52.9843 129.119 52.3292 128.956 51.6997L128.737 50.8707L128.503 50.0332C128.491 49.9913 128.485 49.948 128.484 49.9046L128.489 49.8396L128.879 46.9609C128.911 46.7311 129.104 46.5631 129.329 46.5571L129.405 46.5613Z" fill="#D18888"/>
<path d="M113.645 50.8619C113.989 50.8771 114.255 51.1677 114.239 51.511C114.186 52.7269 114.803 53.6769 115.495 53.707C116.186 53.7378 116.884 52.8461 116.938 51.6292C116.953 51.2859 117.243 51.0198 117.587 51.0349C117.93 51.0501 118.196 51.3407 118.181 51.684C118.1 53.5151 116.925 55.0165 115.44 54.9503C113.955 54.8858 112.915 53.2865 112.996 51.4562C113.011 51.1128 113.302 50.8468 113.645 50.8619Z" fill="#253368"/>
<path d="M134.336 51.7716C134.679 51.7865 134.946 52.0768 134.931 52.4202C134.878 53.6367 135.495 54.5858 136.186 54.6167C136.877 54.6475 137.575 53.7558 137.629 52.5388C137.644 52.1955 137.935 51.9295 138.278 51.9446C138.621 51.9598 138.887 52.2504 138.872 52.5937C138.791 54.4248 137.616 55.9262 136.131 55.86C134.646 55.7937 133.608 54.1965 133.687 52.3664C133.702 52.023 133.993 51.7567 134.336 51.7716Z" fill="#253368"/>
<path d="M99.5583 65.3143C99.811 65.2638 100.057 65.4278 100.107 65.6806L100.156 65.8989C100.191 66.0508 100.243 66.2528 100.311 66.4999C100.494 67.1643 100.732 67.9058 101.033 68.7052C101.892 70.9912 103.074 73.2774 104.628 75.4092C110.033 82.8268 118.419 86.5632 130.463 84.6491L130.862 84.527C131.185 84.4233 131.546 84.2985 131.936 84.1526C133.047 83.7358 134.158 83.2349 135.193 82.6509C137.214 81.5098 138.681 80.1981 139.364 78.7422C139.473 78.5089 139.751 78.4085 139.984 78.518C140.218 78.6275 140.318 78.9054 140.209 79.1387C139.427 80.804 137.826 82.2361 135.652 83.4637C134.571 84.0737 133.417 84.594 132.263 85.0266C131.96 85.1401 131.674 85.2414 131.407 85.3307L130.927 85.4848C130.827 85.5149 130.742 85.5389 130.662 85.5594C118.209 87.5418 109.48 83.6524 103.874 75.9589C102.267 73.7541 101.047 71.3941 100.159 69.0338C99.8482 68.207 99.6009 67.4385 99.4107 66.7476L99.3192 66.4036L99.2117 65.956C99.2029 65.9162 99.1964 65.8852 99.192 65.8633C99.1415 65.6106 99.3055 65.3648 99.5583 65.3143Z" fill="#D18888"/>
<path d="M123.87 78.5144C124.098 78.3932 124.38 78.4793 124.501 78.7067C124.603 78.8974 124.749 79.2241 124.893 79.6532C125.261 80.7472 125.399 81.8766 125.166 82.9511C124.896 84.1966 124.143 85.237 122.844 85.9798C122.62 86.1077 122.335 86.03 122.207 85.8063C122.079 85.5825 122.157 85.2974 122.381 85.1695C123.448 84.559 124.04 83.7422 124.254 82.7533C124.446 81.8683 124.327 80.899 124.008 79.9508C123.882 79.5746 123.757 79.2939 123.678 79.1458C123.557 78.9183 123.643 78.6357 123.87 78.5144Z" fill="#D18888"/>
<path fill-rule="evenodd" clip-rule="evenodd" d="M90.169 50.8762C90.169 50.8762 89.8329 48.0312 92.3519 49.1289C94.8696 50.2278 94.3033 52.6372 93.686 54.7156C93.0451 56.8724 93.8615 58.2128 95.8142 58.6932" fill="#EFADAB"/>
<path fill-rule="evenodd" clip-rule="evenodd" d="M119.272 70.7802C119.216 71.0465 118.955 71.217 118.688 71.161C118.421 71.105 118.252 70.8424 118.308 70.576C118.364 70.3097 118.625 70.1392 118.892 70.1952C119.158 70.2525 119.328 70.5138 119.272 70.7802Z" fill="#D18888"/>
<path fill-rule="evenodd" clip-rule="evenodd" d="M111.795 72.3091C111.739 72.5754 111.476 72.7459 111.21 72.6899C110.944 72.6339 110.773 72.3713 110.83 72.105C110.886 71.8387 111.148 71.6682 111.414 71.7254C111.68 71.7814 111.851 72.0428 111.795 72.3091Z" fill="#D18888"/>
<path fill-rule="evenodd" clip-rule="evenodd" d="M135.551 74.9672C135.635 75.2261 135.493 75.5048 135.234 75.5882C134.975 75.6716 134.696 75.5297 134.613 75.2696C134.529 75.0108 134.671 74.7332 134.93 74.6498C135.189 74.5652 135.468 74.7083 135.551 74.9672Z" fill="#D18888"/>
<path fill-rule="evenodd" clip-rule="evenodd" d="M140.278 72.8153C140.362 73.0742 140.22 73.353 139.961 73.4364C139.702 73.5198 139.423 73.3779 139.34 73.119C139.257 72.8589 139.399 72.5814 139.657 72.498C139.916 72.4134 140.195 72.5565 140.278 72.8153Z" fill="#D18888"/>
<path fill-rule="evenodd" clip-rule="evenodd" d="M131.475 76.226C131.559 76.4849 131.417 76.7636 131.158 76.847C130.899 76.9304 130.62 76.7885 130.537 76.5297C130.454 76.2695 130.596 75.992 130.854 75.9086C131.113 75.824 131.392 75.9671 131.475 76.226Z" fill="#D18888"/>
<path fill-rule="evenodd" clip-rule="evenodd" d="M125.776 74.8432C125.859 75.1021 125.717 75.3809 125.459 75.4642C125.2 75.5476 124.921 75.4057 124.838 75.1469C124.754 74.888 124.896 74.6092 125.155 74.5258C125.414 74.4425 125.693 74.5843 125.776 74.8432Z" fill="#D18888"/>
<path fill-rule="evenodd" clip-rule="evenodd" d="M106.145 70.0312C106.228 70.29 106.086 70.5688 105.827 70.6522C105.568 70.7356 105.29 70.5937 105.206 70.3348C105.123 70.076 105.265 69.7972 105.524 69.7138C105.782 69.6304 106.061 69.7723 106.145 70.0312Z" fill="#D18888"/>
<path fill-rule="evenodd" clip-rule="evenodd" d="M115.252 77.5321C115.196 77.7984 114.933 77.9689 114.667 77.9129C114.401 77.8557 114.23 77.5943 114.287 77.328C114.344 77.0617 114.605 76.8912 114.871 76.9472C115.138 77.0044 115.308 77.2658 115.252 77.5321Z" fill="#D18888"/>
<path fill-rule="evenodd" clip-rule="evenodd" d="M119.108 76.9359C119.052 77.2022 118.79 77.3728 118.523 77.3167C118.256 77.2595 118.086 76.9981 118.143 76.7318C118.199 76.4655 118.461 76.295 118.727 76.351C118.993 76.4082 119.164 76.6696 119.108 76.9359Z" fill="#D18888"/>
<path fill-rule="evenodd" clip-rule="evenodd" d="M134.487 78.9405C134.431 79.2068 134.17 79.3773 133.902 79.3213C133.636 79.2653 133.467 79.0027 133.523 78.7364C133.579 78.47 133.84 78.2995 134.106 78.3568C134.374 78.4128 134.543 78.6741 134.487 78.9405Z" fill="#D18888"/>
<path fill-rule="evenodd" clip-rule="evenodd" d="M132.298 73.0132C132.242 73.2795 131.98 73.45 131.713 73.394C131.446 73.338 131.276 73.0754 131.333 72.8091C131.389 72.5428 131.65 72.3723 131.917 72.4295C132.183 72.4855 132.354 72.7469 132.298 73.0132Z" fill="#D18888"/>
<path fill-rule="evenodd" clip-rule="evenodd" d="M134.288 68.1649C134.232 68.4313 133.97 68.6018 133.703 68.5457C133.437 68.4885 133.266 68.2271 133.323 67.9608C133.379 67.6945 133.641 67.524 133.907 67.58C134.173 67.6372 134.344 67.8986 134.288 68.1649Z" fill="#D18888"/>
<path fill-rule="evenodd" clip-rule="evenodd" d="M111.175 75.3593C111.119 75.6256 110.856 75.7961 110.59 75.7401C110.324 75.6828 110.153 75.4215 110.21 75.1551C110.266 74.8888 110.528 74.7183 110.794 74.7743C111.06 74.8316 111.231 75.0929 111.175 75.3593Z" fill="#D18888"/>
<path fill-rule="evenodd" clip-rule="evenodd" d="M144.118 99.3242L140.052 88.9223L131.315 90.5576L125.428 108.668L114.152 90.2726L90.8551 86.7095L84.3138 99.3242C84.3138 99.3242 105.765 126.246 132.904 119.415C146.312 116.04 144.118 99.3242 144.118 99.3242Z" fill="#597EF7"/>
<path fill-rule="evenodd" clip-rule="evenodd" d="M168.501 248.715C128.459 243.586 83.6826 246.524 83.6826 246.524L85.2606 235.281C85.2606 235.281 136.151 228.772 167.58 237.188C168.303 242.579 168.501 248.715 168.501 248.715Z" fill="#253368"/>
<path d="M129.976 246.831C130.333 246.833 130.626 247.103 130.667 247.449L130.671 247.553L130.635 250.391L130.587 253.135C130.537 255.713 130.47 258.502 130.383 261.459L130.357 262.352C130.04 272.807 129.547 283.263 128.839 293.103L128.704 294.941C127.554 310.221 125.972 322.551 123.889 330.884C123.795 331.26 123.415 331.488 123.039 331.394C122.664 331.3 122.436 330.92 122.529 330.544C124.589 322.306 126.162 310.043 127.307 294.836C128.04 285.097 128.557 274.701 128.895 264.266L129.008 260.538C129.082 257.911 129.141 255.424 129.186 253.108L129.25 249.262L129.27 247.526C129.273 247.139 129.589 246.828 129.976 246.831Z" fill="#253368"/>
<path d="M145.226 247.356C145.613 247.357 145.926 247.671 145.925 248.058L145.913 250.058L145.882 252.949C145.867 254.069 145.849 255.247 145.826 256.474C145.721 262.259 145.545 268.043 145.285 273.505L145.212 274.986C144.406 290.755 143.093 300.42 140.827 302.183C139.439 303.262 137.665 304.365 135.594 305.476C133.785 306.445 131.851 307.367 129.918 308.213L129.13 308.553C128.876 308.661 128.63 308.764 128.395 308.862L127.333 309.291C126.973 309.431 126.567 309.252 126.427 308.891C126.287 308.53 126.466 308.124 126.827 307.984L127.146 307.858L127.518 307.707C128.072 307.481 128.691 307.22 129.356 306.929C131.258 306.097 133.16 305.191 134.931 304.241C136.939 303.164 138.65 302.1 139.966 301.077C141.705 299.724 143.051 289.822 143.812 274.915C144.112 269.04 144.31 262.745 144.425 256.449L144.471 253.608C144.484 252.695 144.495 251.818 144.503 250.982L144.523 248.244L144.524 248.056C144.524 247.669 144.839 247.356 145.226 247.356Z" fill="#253368"/>
<path fill-rule="evenodd" clip-rule="evenodd" d="M119.714 245.098V233.867C119.714 232.4 120.832 231.199 122.249 231.156C126.946 231.016 137.384 230.89 146.852 232.091C148.173 232.258 149.169 233.409 149.169 234.787V245.345C149.169 246.856 147.986 248.075 146.526 248.057C141.158 247.991 128.932 247.846 122.311 247.808C120.87 247.801 119.714 246.589 119.714 245.098Z" fill="#E4EBF7"/>
<path fill-rule="evenodd" clip-rule="evenodd" d="M122.751 243.159L122.754 235.724C122.755 234.755 123.667 233.959 124.824 233.932C128.656 233.84 137.171 233.762 144.896 234.558C145.973 234.67 146.786 235.433 146.786 236.344L146.784 243.333C146.784 244.333 145.817 245.139 144.627 245.127C140.247 245.082 130.271 244.981 124.871 244.954C123.694 244.949 122.751 244.146 122.751 243.159Z" fill="#253368"/>
<path fill-rule="evenodd" clip-rule="evenodd" d="M146.703 233.124L121.837 244.221L122.864 246.481L147.937 235.178L146.703 233.124Z" fill="#E4EBF7"/>
<path fill-rule="evenodd" clip-rule="evenodd" d="M147.772 243.865L122.848 232.897L121.864 235.177L147.077 246.159L147.772 243.865Z" fill="#E4EBF7"/>
<path d="M96.4144 247.364C96.5066 246.989 96.886 246.759 97.2618 246.851C97.6377 246.943 97.8676 247.322 97.7754 247.698L97.7107 247.948C97.658 248.146 97.5944 248.375 97.5197 248.632C97.3072 249.364 97.0481 250.179 96.7409 251.056C95.8631 253.561 94.7744 256.066 93.4606 258.41C89.1912 266.026 83.5717 270.246 76.4725 269.132C76.0902 269.072 75.8289 268.713 75.8889 268.331C75.9489 267.949 76.3074 267.688 76.6897 267.748C83.0789 268.75 88.2231 264.887 92.2383 257.725C93.5086 255.459 94.5657 253.026 95.4184 250.592C95.6671 249.882 95.8832 249.215 96.0673 248.602L96.2939 247.819C96.3505 247.615 96.3906 247.462 96.4144 247.364Z" fill="#253368"/>
<path d="M132.018 316.574C132.215 316.28 132.597 316.182 132.907 316.334L132.99 316.381L151.983 329.081C152.304 329.296 152.391 329.731 152.176 330.053C151.979 330.348 151.596 330.445 151.286 330.293L151.204 330.246L132.211 317.546C131.889 317.331 131.803 316.896 132.018 316.574Z" fill="#253368"/>
<path d="M125.28 315.07C125.571 314.868 125.963 314.918 126.195 315.173L126.255 315.247L133.177 325.243C133.397 325.561 133.318 325.998 133 326.218C132.708 326.42 132.317 326.37 132.084 326.116L132.025 326.041L125.103 316.045C124.882 315.727 124.962 315.29 125.28 315.07Z" fill="#253368"/>
<path d="M88.5561 99.5849C88.6587 99.371 88.8999 99.2684 89.1204 99.3332L89.1929 99.361L104.402 106.658C104.64 106.772 104.74 107.057 104.626 107.295C104.524 107.508 104.283 107.611 104.062 107.546L103.99 107.518L88.78 100.222C88.5423 100.108 88.4421 99.8226 88.5561 99.5849Z" fill="#253368"/>
<path d="M162.876 249.836C163.262 249.809 163.596 250.1 163.623 250.486L163.669 251.035C163.68 251.148 163.691 251.268 163.704 251.396C163.779 252.128 163.878 252.945 164.005 253.824C164.368 256.335 164.883 258.846 165.574 261.183C167.422 267.43 170.155 271.229 173.815 271.511C174.201 271.541 174.49 271.878 174.46 272.263C174.43 272.649 174.093 272.938 173.708 272.908C169.273 272.567 166.228 268.334 164.23 261.581C163.518 259.172 162.99 256.598 162.618 254.025C162.509 253.275 162.421 252.569 162.35 251.92L162.258 250.995L162.225 250.583C162.198 250.197 162.49 249.862 162.876 249.836Z" fill="#253368"/>
<path d="M120.995 75.5435L125.429 75.7376C125.687 75.7489 125.886 75.9668 125.875 76.2243C125.865 76.456 125.687 76.6409 125.464 76.6673L125.388 76.6701L120.954 76.476C120.697 76.4647 120.497 76.2468 120.508 75.9893C120.518 75.7575 120.696 75.5727 120.919 75.5462L120.995 75.5435Z" fill="#D18888"/>
<path fill-rule="evenodd" clip-rule="evenodd" d="M86.3315 147.545C88.2407 138.693 90.7422 114.944 67.2153 107.97C48.4003 102.393 40.2735 114.201 34.4776 125.444C24.5126 144.78 19.4448 169.058 13.8618 201.994C13.8618 201.994 8.78527 229.935 35.701 234.737C58.4799 238.799 64.5159 216.044 64.5159 216.044C64.5159 216.044 84.1486 157.662 86.3315 147.545Z" fill="#FFC2BD"/>
<path fill-rule="evenodd" clip-rule="evenodd" d="M74.0351 187.471C77.027 178.545 89.1737 147.457 89.8607 144.269C91.7711 135.417 92.7157 112.968 69.1876 105.993C50.3739 100.415 39.387 111.213 33.8015 122.562C29.9521 130.386 20.1252 164.401 19.371 171.586L74.0351 187.471Z" fill="#597EF7"/>
<path d="M58.2025 107.134C58.2903 106.885 58.563 106.755 58.8115 106.843L59.096 106.953C59.318 107.044 59.5744 107.157 59.8622 107.292C60.6796 107.678 61.5883 108.172 62.5654 108.787C65.3495 110.537 68.1309 112.9 70.7247 115.961C74.5094 120.428 77.5656 126.004 79.633 132.808C79.7096 133.06 79.5672 133.327 79.315 133.403C79.0628 133.48 78.7962 133.338 78.7196 133.085C76.6903 126.406 73.6974 120.946 69.9965 116.578C67.4681 113.594 64.7613 111.295 62.0572 109.595C61.1134 109.001 60.2385 108.525 59.4552 108.156L59.0704 107.98C59.0104 107.953 58.9524 107.928 58.8964 107.904L58.5218 107.753C58.5107 107.749 58.5012 107.746 58.4935 107.743C58.245 107.655 58.1147 107.382 58.2025 107.134Z" fill="#253368"/>
<path fill-rule="evenodd" clip-rule="evenodd" d="M146.921 239.332C124.66 238.632 68.9304 244.017 39.0016 237.891C39.0016 237.891 7.97137 230.736 14.3061 203.42C20.484 176.785 51.8204 185.629 51.8204 185.629C87.0982 194.77 134.08 205.478 153.929 209.898C153.929 209.898 160.163 209.386 159.536 222.98C158.793 239.11 146.921 239.332 146.921 239.332Z" fill="#FFC2BD"/>
<path d="M125.801 112.411C126.055 112.337 126.319 112.483 126.393 112.736L126.552 113.306L126.709 113.893C126.763 114.099 126.82 114.317 126.878 114.545L126.967 114.896C127.396 116.601 127.825 118.487 128.225 120.501C129.17 125.255 129.809 129.964 129.999 134.369C130.126 137.302 130.048 140.018 129.741 142.475C129.708 142.736 129.47 142.922 129.208 142.889C128.947 142.857 128.761 142.618 128.794 142.356C129.094 139.957 129.17 137.293 129.045 134.411C128.857 130.059 128.225 125.397 127.289 120.687C126.936 118.912 126.561 117.236 126.183 115.699L126.041 115.129C125.922 114.656 125.81 114.225 125.707 113.838L125.476 113.002C125.403 112.749 125.548 112.484 125.801 112.411Z" fill="#253368"/>
<path d="M83.4805 151.496C83.7381 151.551 83.9019 151.805 83.8463 152.063L83.6617 152.898C82.0307 160.131 76.793 180.279 74.487 187.155C74.4151 187.37 74.2047 187.501 73.9868 187.479L73.9049 187.463L19.2409 172.046C18.9872 171.974 18.8395 171.71 18.911 171.457C18.9754 171.228 19.1955 171.086 19.4238 171.112L19.5 171.127L73.7242 186.419L73.9965 185.574C76.4885 177.675 81.3328 158.964 82.7932 152.408L82.9132 151.862C82.9633 151.63 83.174 151.474 83.4035 151.485L83.4805 151.496Z" fill="#253368"/>
<path fill-rule="evenodd" clip-rule="evenodd" d="M150.671 244.096L168.678 187.765C168.976 186.837 169.832 186.202 170.808 186.19L221.303 185.505C222.871 185.484 223.986 187.025 223.477 188.507L204.679 243.342C204.377 244.224 203.565 244.83 202.634 244.871L152.929 247.05C151.353 247.12 150.191 245.598 150.671 244.096Z" fill="#A3B5D6"/>
<path fill-rule="evenodd" clip-rule="evenodd" d="M153.333 243.409L171.026 188.06C171.386 186.937 172.424 186.167 173.604 186.151L224.722 185.459C225.82 185.446 226.6 186.522 226.244 187.56L207.185 243.151C206.851 244.128 205.952 244.8 204.921 244.845L156.068 246.987C154.159 247.072 152.75 245.228 153.333 243.409Z" fill="#253368"/>
<path fill-rule="evenodd" clip-rule="evenodd" d="M177.948 191.485C178.519 192.121 178.313 193.237 177.488 193.98C176.663 194.722 175.531 194.808 174.959 194.173C174.387 193.537 174.592 192.419 175.419 191.678C176.244 190.936 177.376 190.849 177.948 191.485Z" fill="#4E5C93"/>
<path fill-rule="evenodd" clip-rule="evenodd" d="M177.27 192.15C177.566 192.48 177.46 193.06 177.032 193.445C176.603 193.83 176.015 193.875 175.718 193.545C175.422 193.215 175.529 192.635 175.957 192.251C176.385 191.865 176.972 191.82 177.27 192.15Z" fill="#E4EBF7"/>
<path fill-rule="evenodd" clip-rule="evenodd" d="M186.443 231.471C190.074 230.524 190.524 227.428 189.684 224.411C193.897 222.305 192.8 218.626 192.8 218.626C192.8 218.626 201.319 217.131 202.174 213.252C202.505 211.745 201.18 210.402 199.643 210.542C181.15 212.225 166.554 204.615 166.554 204.615C166.554 204.615 172.059 192.903 170.519 188.15C170.064 186.745 168.105 186.58 167.41 187.883C161.458 199.043 146.455 208.186 146.455 208.186C146.455 208.186 120.853 233.053 141.782 237.62C141.782 237.62 171.473 242.674 182.896 236.219C187.272 233.747 186.443 231.471 186.443 231.471Z" fill="#FFC2BD"/>
<path d="M194.249 218.111C194.495 218.033 194.757 218.169 194.835 218.415C194.913 218.66 194.777 218.923 194.532 219.001L194.177 219.106C194.061 219.139 193.925 219.177 193.769 219.219C193.166 219.38 192.489 219.541 191.752 219.691C188.99 220.255 186.18 220.517 183.548 220.31C181.971 220.186 180.515 219.894 179.204 219.413C178.962 219.325 178.838 219.056 178.927 218.814C179.016 218.572 179.284 218.448 179.526 218.537C180.751 218.986 182.125 219.262 183.621 219.379C186.155 219.579 188.882 219.324 191.566 218.777C192.283 218.63 192.942 218.474 193.527 218.317L194.112 218.153C194.167 218.137 194.213 218.122 194.249 218.111Z" fill="#D18888"/>
<path d="M189.659 223.975C189.878 223.839 190.166 223.906 190.302 224.125C190.438 224.344 190.371 224.632 190.152 224.768L189.942 224.892C189.824 224.958 189.675 225.039 189.497 225.131C188.982 225.397 188.397 225.662 187.753 225.909C184.697 227.083 181.49 227.455 178.417 226.532C178.17 226.458 178.03 226.198 178.105 225.951C178.179 225.704 178.439 225.564 178.686 225.638C181.531 226.493 184.539 226.144 187.418 225.038C188.029 224.803 188.583 224.552 189.069 224.301L189.391 224.13C189.512 224.064 189.602 224.011 189.659 223.975Z" fill="#D18888"/>
<path d="M185.647 231.343C185.718 231.59 185.575 231.849 185.327 231.92L184.677 232.099L184.447 232.16C183.769 232.34 183.049 232.519 182.318 232.687C181.722 232.824 181.143 232.947 180.591 233.053L180.012 233.16C178.226 233.474 176.912 233.559 176.165 233.335C175.918 233.26 175.778 233 175.852 232.753C175.926 232.507 176.186 232.366 176.433 232.441C177.059 232.628 178.491 232.506 180.415 232.137C180.955 232.033 181.523 231.912 182.109 231.777C182.649 231.653 183.183 231.523 183.699 231.391L184.435 231.197L185.07 231.023C185.318 230.952 185.576 231.095 185.647 231.343Z" fill="#D18888"/>
<path fill-rule="evenodd" clip-rule="evenodd" d="M248.936 107.63C248.936 107.63 263.424 63.1509 281.425 51.0924C286.943 51.0626 282.087 58.2113 278.505 64.0444C276.673 67.0264 275.545 70.7463 275.545 70.7463C275.545 70.7463 283.065 69.6859 281.889 75.8751C287.93 75.3486 286.027 81.9148 286.027 81.9148C286.027 81.9148 290.681 81.7356 289.452 87.814C289.068 89.7156 282.423 118.233 267.42 123.846C259.302 126.883 251.465 116.406 248.936 107.63Z" fill="#FFC2BD"/>
<path d="M264.991 74.9653C266.183 69.5241 268.414 67.227 270.429 68.9173C272.165 70.3733 272.639 74.3059 271.282 77.956L271.013 78.6872C268.633 85.2433 268.539 87.81 269.77 90.5316L269.999 91.0153C270.506 92.0641 270.728 92.6826 270.839 93.5895C271.568 99.5677 269.351 105.126 262.542 107.205C262.318 107.273 262.08 107.147 262.012 106.922C261.943 106.698 262.069 106.46 262.294 106.392C268.627 104.459 270.68 99.3091 269.995 93.6925C269.906 92.9653 269.736 92.4492 269.346 91.6198L269.144 91.1998C267.61 88.031 267.678 85.2105 270.485 77.6598C271.73 74.3134 271.301 70.7579 269.883 69.5686C268.639 68.5253 267.026 70.098 265.924 74.6719L265.797 75.2238L259.753 89.3046C259.661 89.5203 259.411 89.6201 259.195 89.5275C259.003 89.4452 258.903 89.2386 258.948 89.0423L258.972 88.9693L264.991 74.9653Z" fill="#D18888"/>
<path d="M281.503 75.6983C281.601 75.4849 281.853 75.3912 282.067 75.4889C282.28 75.5867 282.374 75.8389 282.276 76.0523L282.077 76.4745L281.82 77.0017C281.73 77.1861 281.633 77.3788 281.532 77.5786C280.953 78.7207 280.329 79.8629 279.683 80.9307C278.899 82.2252 278.137 83.3212 277.411 84.158C276.243 85.5035 275.194 86.164 274.231 85.9242C271.71 85.2966 270.92 83.5603 271.509 81.2152C271.721 80.3688 272.104 79.4766 272.607 78.5697C272.883 78.0729 273.178 77.6026 273.473 77.1728L273.637 76.9376C273.737 76.7971 273.817 76.6896 273.872 76.6197C274.016 76.4345 274.283 76.4014 274.468 76.5456C274.653 76.6899 274.686 76.957 274.542 77.1421L274.394 77.341C274.332 77.427 274.257 77.5319 274.173 77.654C273.893 78.0628 273.612 78.5106 273.35 78.9822C272.88 79.8296 272.525 80.6569 272.333 81.4222C271.85 83.3474 272.419 84.597 274.437 85.0994C274.981 85.235 275.796 84.722 276.769 83.6009C277.458 82.8062 278.195 81.7473 278.955 80.4906C279.589 79.4429 280.203 78.3186 280.774 77.1941L281.058 76.6259L281.479 75.7502C281.488 75.7303 281.496 75.713 281.503 75.6983Z" fill="#D18888"/>
<path d="M285.352 82.117C285.42 81.8925 285.658 81.766 285.882 81.8345C286.107 81.9031 286.233 82.1406 286.165 82.3651L286.05 82.7143C285.957 82.987 285.847 83.2903 285.719 83.6167C285.356 84.5497 284.928 85.483 284.44 86.3567C282.974 88.9781 281.267 90.5502 279.279 90.4803C277.288 90.4115 276.325 89.1968 276.211 87.3293C276.169 86.6398 276.244 85.9109 276.395 85.1926C276.424 85.0573 276.454 84.929 276.484 84.809L276.567 84.5038C276.578 84.4673 276.587 84.4383 276.593 84.4174C276.666 84.1941 276.905 84.0718 277.129 84.1441C277.352 84.2165 277.474 84.4562 277.402 84.6795L277.361 84.8174C277.322 84.9535 277.275 85.1409 277.227 85.3673C277.091 86.0172 277.023 86.6741 277.06 87.2775C277.149 88.7468 277.809 89.579 279.309 89.6308C280.879 89.686 282.373 88.3104 283.698 85.9418C284.166 85.1056 284.577 84.2069 284.927 83.308C285.019 83.0719 285.102 82.8486 285.175 82.6414L285.301 82.2751C285.324 82.2043 285.341 82.151 285.352 82.117Z" fill="#D18888"/>
<path d="M289.662 86.4974C289.892 86.5455 290.039 86.7708 289.991 87.0005L289.955 87.1589L289.917 87.318C289.856 87.5651 289.782 87.8398 289.694 88.1354C289.444 88.9805 289.135 89.826 288.764 90.6182C287.435 93.451 285.639 94.947 283.331 94.2067C281.607 93.6543 280.944 92.5082 281.203 91.042C281.32 90.3807 281.616 89.6918 282.036 88.9989C282.224 88.687 282.426 88.3947 282.628 88.1295L282.817 87.8893C282.852 87.847 282.881 87.8125 282.904 87.7862C283.058 87.6094 283.327 87.5913 283.504 87.7458C283.68 87.9003 283.698 88.1688 283.544 88.3455L283.423 88.4918C283.388 88.5356 283.348 88.5866 283.304 88.6444C283.12 88.8869 282.935 89.1548 282.763 89.439C282.393 90.0499 282.136 90.6478 282.04 91.1899C281.854 92.2438 282.278 92.9767 283.59 93.3972C285.365 93.9663 286.825 92.7499 287.994 90.2572C288.346 89.5075 288.641 88.701 288.879 87.8941C288.942 87.6821 288.998 87.4816 289.046 87.2956L289.141 86.9092C289.149 86.8742 289.155 86.8464 289.159 86.8262C289.202 86.622 289.384 86.483 289.586 86.4884L289.662 86.4974Z" fill="#D18888"/>
<path d="M282.163 93.4006C282.385 93.3236 282.627 93.4409 282.704 93.6626C282.781 93.8843 282.664 94.1265 282.442 94.2036L282.236 94.2808C282.174 94.3049 282.102 94.3337 282.02 94.3673C281.676 94.5087 281.292 94.6817 280.877 94.887C279.691 95.4744 278.505 96.2021 277.4 97.0765C274.429 99.4274 272.59 102.378 272.41 105.987C272.398 106.222 272.199 106.402 271.964 106.391C271.73 106.379 271.549 106.179 271.561 105.945C271.755 102.062 273.725 98.9006 276.873 96.4099C278.028 95.4959 279.264 94.7375 280.5 94.1253C280.846 93.9537 281.173 93.8036 281.475 93.6742L281.697 93.5811C281.917 93.4909 282.075 93.4311 282.163 93.4006Z" fill="#D18888"/>
<path d="M56.8337 187.008L146.559 207.731C146.81 207.789 146.967 208.039 146.909 208.29C146.857 208.516 146.648 208.666 146.424 208.651L146.349 208.64L56.6237 187.917C56.3725 187.859 56.216 187.609 56.274 187.357C56.3262 187.131 56.5344 186.982 56.7586 186.997L56.8337 187.008Z" fill="#D18888"/>
</svg>
