<svg width="14" height="16" viewBox="0 0 14 16" fill="none" xmlns="http://www.w3.org/2000/svg">
<path d="M11.2427 11.2425L8.0605 14.4248C7.92133 14.5641 7.75607 14.6746 7.57417 14.75C7.39227 14.8254 7.19729 14.8642 7.00037 14.8642C6.80346 14.8642 6.60848 14.8254 6.42658 14.75C6.24468 14.6746 6.07942 14.5641 5.94025 14.4248L2.75725 11.2425C1.91817 10.4034 1.34675 9.3343 1.11527 8.17042C0.883782 7.00655 1.00262 5.80016 1.45675 4.70383C1.91089 3.60749 2.67992 2.67043 3.66661 2.01116C4.6533 1.35189 5.81333 1 7 1C8.18667 1 9.3467 1.35189 10.3334 2.01116C11.3201 2.67043 12.0891 3.60749 12.5432 4.70383C12.9974 5.80016 13.1162 7.00655 12.8847 8.17042C12.6532 9.3343 12.0818 10.4034 11.2427 11.2425V11.2425Z" stroke="#7F7F7F" stroke-width="1.5" stroke-linecap="round" stroke-linejoin="round"/>
<path d="M8.59099 8.59099C9.01295 8.16903 9.25 7.59674 9.25 7C9.25 6.40326 9.01295 5.83097 8.59099 5.40901C8.16903 4.98705 7.59674 4.75 7 4.75C6.40326 4.75 5.83097 4.98705 5.40901 5.40901C4.98705 5.83097 4.75 6.40326 4.75 7C4.75 7.59674 4.98705 8.16903 5.40901 8.59099C5.83097 9.01295 6.40326 9.25 7 9.25C7.59674 9.25 8.16903 9.01295 8.59099 8.59099Z" stroke="#7F7F7F" stroke-width="1.5" stroke-linecap="round" stroke-linejoin="round"/>
</svg>
