<svg width="19" height="19" viewBox="0 0 19 19" fill="none" xmlns="http://www.w3.org/2000/svg">
<path d="M17.6936 17.6946C17.4827 17.905 17.197 18.0231 16.8991 18.0231C16.6012 18.0231 16.3155 17.905 16.1046 17.6946L12.5686 14.1567C10.9769 15.3468 8.99358 15.8899 7.01762 15.6767C5.04167 15.4634 3.21977 14.5097 1.91869 13.0074C0.617598 11.505 -0.0661499 9.56554 0.00505083 7.57939C0.0762515 5.59324 0.897151 3.70786 2.30248 2.30254C3.7078 0.897212 5.59324 0.0762511 7.57939 0.00505043C9.56554 -0.0661503 11.505 0.617659 13.0073 1.91875C14.5097 3.21983 15.4634 5.04167 15.6766 7.01762C15.8899 8.99358 15.3468 10.977 14.1566 12.5686L17.6946 16.1066C17.9049 16.3173 18.023 16.603 18.023 16.9007C18.023 17.1984 17.9039 17.4839 17.6936 17.6946ZM11.8546 3.91362C11.0693 3.12838 10.0688 2.59363 8.9796 2.377C7.8904 2.16036 6.76145 2.27158 5.73546 2.69658C4.70947 3.12157 3.83253 3.8412 3.21556 4.76457C2.59859 5.68795 2.26927 6.77355 2.26927 7.88408C2.26927 8.99461 2.59859 10.0802 3.21556 11.0036C3.83253 11.927 4.70947 12.6467 5.73546 13.0717C6.76145 13.4967 7.8904 13.6079 8.9796 13.3913C10.0688 13.1746 11.0693 12.6399 11.8546 11.8547C12.3761 11.3333 12.7899 10.7143 13.0721 10.033C13.3544 9.35174 13.4997 8.62151 13.4997 7.88408C13.4997 7.14665 13.3544 6.41654 13.0721 5.73528C12.7899 5.05401 12.3761 4.43496 11.8546 3.91362Z" fill="#B8B8B8"/>
</svg>
